<svg width="64" height="64" viewBox="0 0 64 64" fill="none" xmlns="http://www.w3.org/2000/svg">
  <defs>
    <linearGradient id="sendyGradient" x1="0%" y1="0%" x2="100%" y2="0%">
      <stop offset="0%" style="stop-color:#60A5FA;stop-opacity:1" />
      <stop offset="100%" style="stop-color:#06B6D4;stop-opacity:1" />
    </linearGradient>
  </defs>
  
  <!-- 배경 -->
  <rect width="64" height="64" rx="12" fill="url(#sendyGradient)"/>
  
  <!-- 종이비행기 심볼 -->
  <g transform="translate(16, 12)">
    <!-- 종이비행기 본체 -->
    <path d="M16 8 L24 6 L20 12 L16 16 L12 20 L8 16 L12 12 L16 8 Z" fill="white"/>
    <path d="M12 12 L16 8 L20 12 L16 16 L12 12 Z" fill="white"/>
    <path d="M16 16 L20 12 L24 16 L20 20 L16 16 Z" fill="white"/>
    
    <!-- 달러 기호 (투명하게 비쳐 보임) -->
    <rect x="15" y="6" width="2" height="14" fill="url(#sendyGradient)"/>
    <path d="M12 8 Q16 6 20 8" stroke="url(#sendyGradient)" stroke-width="1.5" fill="none"/>
    <path d="M12 14 Q16 12 20 14" stroke="url(#sendyGradient)" stroke-width="1.5" fill="none"/>
  </g>
  
  <!-- SENDY 텍스트 -->
  <text x="32" y="50" font-family="Arial, sans-serif" font-size="10" font-weight="600" text-anchor="middle" fill="white">Sendy</text>
</svg> 