<?xml version="1.0" encoding="UTF-8"?>
<svg version="1.1" xmlns="http://www.w3.org/2000/svg" width="1024" height="1024">
<path d="M0 0 C0.97324219 0.00644531 1.94648438 0.01289063 2.94921875 0.01953125 C5.3125 0.1875 5.3125 0.1875 6.3125 1.1875 C7.3025 0.8575 8.2925 0.5275 9.3125 0.1875 C11.35242808 0.09351957 13.39541414 0.05757931 15.4375 0.0625 C16.51257813 0.05992187 17.58765625 0.05734375 18.6953125 0.0546875 C21.3125 0.1875 21.3125 0.1875 22.3125 1.1875 C22.3125 0.8575 22.3125 0.5275 22.3125 0.1875 C25.89581625 0.15842916 29.47910208 0.14067737 33.0625 0.125 C34.07828125 0.11662109 35.0940625 0.10824219 36.140625 0.09960938 C37.1203125 0.09638672 38.1 0.09316406 39.109375 0.08984375 C40.01010742 0.08460693 40.91083984 0.07937012 41.83886719 0.07397461 C44.3125 0.1875 44.3125 0.1875 46.57519531 0.75610352 C47.14850586 0.89846436 47.72181641 1.0408252 48.3125 1.1875 C48.6425 0.8575 48.9725 0.5275 49.3125 0.1875 C51.64541811 0.14348268 53.97950175 0.14795766 56.3125 0.1875 C57.6325 0.1875 58.9525 0.1875 60.3125 0.1875 C61.1375 0.373125 61.9625 0.55875 62.8125 0.75 C65.38459227 1.20011615 66.86457232 1.00347589 69.3125 0.1875 C69.3125 0.8475 69.3125 1.5075 69.3125 2.1875 C70.16070312 1.86007813 71.00890625 1.53265625 71.8828125 1.1953125 C75.51440011 0.12817172 78.41586301 -0.01447218 82.1875 0.0625 C83.91613281 0.08957031 83.91613281 0.08957031 85.6796875 0.1171875 C86.54851562 0.14039063 87.41734375 0.16359375 88.3125 0.1875 C88.3125 0.8475 88.3125 1.5075 88.3125 2.1875 C88.85165039 1.86152832 89.39080078 1.53555664 89.94628906 1.19970703 C92.84948459 -0.04220884 95.01893701 -0.03998534 98.171875 -0.0078125 C99.28691406 -0.00136719 100.40195312 0.00507813 101.55078125 0.01171875 C102.70964844 0.02847656 103.86851562 0.04523438 105.0625 0.0625 C106.82400391 0.07603516 106.82400391 0.07603516 108.62109375 0.08984375 C111.51843536 0.11339937 114.41536441 0.14629348 117.3125 0.1875 C117.3125 0.8475 117.3125 1.5075 117.3125 2.1875 C118.26125 1.8575 119.21 1.5275 120.1875 1.1875 C123.33107618 0.18155562 125.04762765 0.1875 128.3125 0.1875 C128.3125 0.8475 128.3125 1.5075 128.3125 2.1875 C129.7975 1.1975 129.7975 1.1975 131.3125 0.1875 C133.90625 0.2109375 133.90625 0.2109375 136.8125 0.5625 C141.27044914 1.07780057 144.95282092 1.39017009 149.3125 0.1875 C149.3125 0.8475 149.3125 1.5075 149.3125 2.1875 C149.9725 2.1875 150.6325 2.1875 151.3125 2.1875 C151.6425 1.5275 151.9725 0.8675 152.3125 0.1875 C152.3125 0.8475 152.3125 1.5075 152.3125 2.1875 C152.9725 2.1875 153.6325 2.1875 154.3125 2.1875 C154.3125 1.5275 154.3125 0.8675 154.3125 0.1875 C155.199375 0.373125 156.08625 0.55875 157 0.75 C160.16428811 1.16792484 162.26089642 0.99527742 165.3125 0.1875 C165.3125 0.8475 165.3125 1.5075 165.3125 2.1875 C165.9725 2.1875 166.6325 2.1875 167.3125 2.1875 C167.6425 1.5275 167.9725 0.8675 168.3125 0.1875 C169.97916667 0.1875 171.64583333 0.1875 173.3125 0.1875 C173.3125 0.8475 173.3125 1.5075 173.3125 2.1875 C174.6325 2.1875 175.9525 2.1875 177.3125 2.1875 C177.3125 1.5275 177.3125 0.8675 177.3125 0.1875 C178.6325 0.1875 179.9525 0.1875 181.3125 0.1875 C181.3125 0.8475 181.3125 1.5075 181.3125 2.1875 C181.9725 2.1875 182.6325 2.1875 183.3125 2.1875 C183.6425 1.5275 183.9725 0.8675 184.3125 0.1875 C184.3125 0.8475 184.3125 1.5075 184.3125 2.1875 C187.2825 2.1875 190.2525 2.1875 193.3125 2.1875 C193.3125 1.5275 193.3125 0.8675 193.3125 0.1875 C194.488125 0.4659375 194.488125 0.4659375 195.6875 0.75 C198.28339775 1.44712266 198.28339775 1.44712266 200.3125 0.1875 C200.3125 0.8475 200.3125 1.5075 200.3125 2.1875 C201.72952513 2.04519192 203.1461096 1.89849254 204.5625 1.75 C205.35140625 1.66878906 206.1403125 1.58757812 206.953125 1.50390625 C209.13614639 1.21115007 211.1898182 0.76685581 213.3125 0.1875 C213.3125 0.8475 213.3125 1.5075 213.3125 2.1875 C214.6325 2.1875 215.9525 2.1875 217.3125 2.1875 C217.3125 1.5275 217.3125 0.8675 217.3125 0.1875 C218.55 0.373125 219.7875 0.55875 221.0625 0.75 C224.07529577 1.13461223 226.41260827 1.2749594 229.3125 0.1875 C229.3125 0.8475 229.3125 1.5075 229.3125 2.1875 C232.07526177 1.66481534 234.6385876 1.07880413 237.3125 0.1875 C237.3125 0.8475 237.3125 1.5075 237.3125 2.1875 C238.26125 1.836875 239.21 1.48625 240.1875 1.125 C243.3125 0.1875 243.3125 0.1875 245.3125 1.1875 C247.2718604 1.27260205 249.23412794 1.29467656 251.1953125 1.28515625 C252.94521484 1.28032227 252.94521484 1.28032227 254.73046875 1.27539062 C256.56544922 1.26282227 256.56544922 1.26282227 258.4375 1.25 C260.28408203 1.24323242 260.28408203 1.24323242 262.16796875 1.23632812 C265.21619392 1.2245133 268.26432314 1.20804028 271.3125 1.1875 C271.3125 0.8575 271.3125 0.5275 271.3125 0.1875 C275.20504042 0.11264345 278.55357857 0.24776964 282.3125 1.1875 C283.7975 0.6925 283.7975 0.6925 285.3125 0.1875 C285.3125 0.8475 285.3125 1.5075 285.3125 2.1875 C286.405625 2.001875 287.49875 1.81625 288.625 1.625 C292.3125 1.1875 292.3125 1.1875 295.3125 2.1875 C295.6425 1.5275 295.9725 0.8675 296.3125 0.1875 C296.3125 0.8475 296.3125 1.5075 296.3125 2.1875 C296.9725 2.1875 297.6325 2.1875 298.3125 2.1875 C298.3125 1.5275 298.3125 0.8675 298.3125 0.1875 C299.59125 0.3525 300.87 0.5175 302.1875 0.6875 C306.56554369 1.18705491 310.84465993 1.23520805 315.24609375 1.125 C317.3125 1.1875 317.3125 1.1875 319.3125 2.1875 C319.6425 1.5275 319.9725 0.8675 320.3125 0.1875 C324.2725 1.1775 324.2725 1.1775 328.3125 2.1875 C328.3125 1.5275 328.3125 0.8675 328.3125 0.1875 C328.91578125 0.27128906 329.5190625 0.35507813 330.140625 0.44140625 C330.93984375 0.54324219 331.7390625 0.64507812 332.5625 0.75 C333.35140625 0.85441406 334.1403125 0.95882812 334.953125 1.06640625 C337.31782874 1.18777349 339.0636037 0.88383257 341.3125 0.1875 C341.3125 0.8475 341.3125 1.5075 341.3125 2.1875 C345.2725 2.1875 349.2325 2.1875 353.3125 2.1875 C353.6425 1.5275 353.9725 0.8675 354.3125 0.1875 C354.3125 0.8475 354.3125 1.5075 354.3125 2.1875 C355.199375 2.001875 356.08625 1.81625 357 1.625 C360.3125 1.1875 360.3125 1.1875 362.8125 1.75 C366.10955142 2.326984 368.2233071 1.35452843 371.3125 0.1875 C371.9725 0.1875 372.6325 0.1875 373.3125 0.1875 C373.3125 0.8475 373.3125 1.5075 373.3125 2.1875 C374.199375 1.81625 375.08625 1.445 376 1.0625 C379.72076005 0.07965772 380.98688135 0.42687836 384.3125 2.1875 C384.9725 1.5275 385.6325 0.8675 386.3125 0.1875 C387.3025 0.1875 388.2925 0.1875 389.3125 0.1875 C389.3125 0.8475 389.3125 1.5075 389.3125 2.1875 C390.42625 1.8575 391.54 1.5275 392.6875 1.1875 C396.56851926 0.116874 397.81150193 0.11462755 401.75 0.6875 C405.20807755 1.25699431 405.20807755 1.25699431 408.3125 1.1875 C408.3125 1.8475 408.3125 2.5075 408.3125 3.1875 C408.96508789 3.17178955 409.61767578 3.1560791 410.29003906 3.13989258 C450.99931038 2.29505043 491.76141516 12.13946216 523.3125 39.1875 C523.85213379 39.64882324 524.39176758 40.11014648 524.94775391 40.58544922 C549.87112051 62.16231864 567.69889457 91.72070971 574.3125 124.1875 C574.4375 127.1875 574.4375 127.1875 574.3125 129.1875 C574.9725 129.5175 575.6325 129.8475 576.3125 130.1875 C576.3125 134.4775 576.3125 138.7675 576.3125 143.1875 C577.3025 143.5175 578.2925 143.8475 579.3125 144.1875 C578.6525 144.1875 577.9925 144.1875 577.3125 144.1875 C577.38313622 145.13781924 577.45377245 146.08813847 577.52654916 147.06725526 C578.2513553 157.33348307 578.45698598 167.54115659 578.44621277 177.83001709 C578.44808585 179.55216243 578.45038851 181.27430735 578.45307809 182.99645162 C578.45914144 187.68350917 578.45906901 192.37054875 578.45788372 197.05760932 C578.45767831 202.13085178 578.46321186 207.20408868 578.46794128 212.27732849 C578.47621906 222.2013548 578.47899485 232.12537517 578.47955366 242.04940465 C578.48003033 250.12611 578.48209256 258.2028134 578.48525429 266.27951813 C578.49405413 289.22957458 578.49867488 312.17962638 578.49792381 335.12968454 C578.49786388 336.9824072 578.49786388 336.9824072 578.49780273 338.87255859 C578.49774141 340.7275709 578.49774141 340.7275709 578.49767885 342.62005821 C578.49727289 362.63666551 578.50683161 382.65325395 578.5209411 402.6698558 C578.53534812 423.27288497 578.54220887 443.87590497 578.54134732 464.47893929 C578.54101678 476.02563795 578.54370093 487.57231684 578.55452538 499.11901093 C578.56368764 508.9549544 578.5657592 518.79086918 578.55901595 528.62681511 C578.55577897 533.63282388 578.5555901 538.63877777 578.5643692 543.64478111 C578.66036862 602.18668366 573.60356998 653.05896048 531.5 697.3125 C521.36547282 707.11610385 500.69402428 726.1875 486.3125 726.1875 C485.9825 726.8475 485.6525 727.5075 485.3125 728.1875 C483.66015625 728.86328125 483.66015625 728.86328125 481.375 729.5 C480.4675 729.75394531 479.56 730.00789062 478.625 730.26953125 C477.531875 730.57246094 476.43875 730.87539063 475.3125 731.1875 C473.97862678 731.58543434 472.64532831 731.98529852 471.3125 732.38671875 C463.44068534 734.7182248 455.61374601 736.65417406 447.5 737.9375 C446.77304932 738.05287109 446.04609863 738.16824219 445.29711914 738.28710938 C429.78016024 740.5687609 414.12546694 740.47267133 398.47802734 740.66430664 C395.38879957 740.70385141 392.29995521 740.75534897 389.2109375 740.80859375 C387.78604507 740.82121498 387.78604507 740.82121498 386.33236694 740.83409119 C385.01421494 740.85905418 385.01421494 740.85905418 383.66943359 740.88452148 C382.89812103 740.89482895 382.12680847 740.90513641 381.3321228 740.91575623 C378.9995368 741.07923665 378.9995368 741.07923665 376.3125 743.1875 C373.625 742.3125 373.625 742.3125 371.3125 741.1875 C370.9825 741.8475 370.6525 742.5075 370.3125 743.1875 C368.3325 742.8575 366.3525 742.5275 364.3125 742.1875 C364.3125 741.8575 364.3125 741.5275 364.3125 741.1875 C326.6925 740.8575 289.0725 740.5275 250.3125 740.1875 C249.9825 741.1775 249.6525 742.1675 249.3125 743.1875 C247.6625 742.8575 246.0125 742.5275 244.3125 742.1875 C244.3125 741.8575 244.3125 741.5275 244.3125 741.1875 C238.7025 741.1875 233.0925 741.1875 227.3125 741.1875 C227.3125 741.5175 227.3125 741.8475 227.3125 742.1875 C225.0025 742.1875 222.6925 742.1875 220.3125 742.1875 C220.3125 741.8575 220.3125 741.5275 220.3125 741.1875 C217.54140693 741.13357603 214.77136182 741.09386545 212 741.0625 C211.21431641 741.04574219 210.42863281 741.02898438 209.61914062 741.01171875 C208.86181641 741.00527344 208.10449219 740.99882813 207.32421875 740.9921875 C206.62772217 740.98171387 205.93122559 740.97124023 205.21362305 740.96044922 C202.981327 741.08175405 202.981327 741.08175405 200.3125 743.1875 C198.125 742.8125 198.125 742.8125 196.3125 742.1875 C196.3125 741.8575 196.3125 741.5275 196.3125 741.1875 C169.5825 741.1875 142.8525 741.1875 115.3125 741.1875 C115.3125 741.5175 115.3125 741.8475 115.3125 742.1875 C104.75441344 743.52007403 104.75441344 743.52007403 100.3125 742.1875 C100.3125 741.8575 100.3125 741.5275 100.3125 741.1875 C91.87210805 741.14121476 83.43176889 741.10565031 74.99128151 741.08387566 C71.07226716 741.07342635 67.15333947 741.05924638 63.234375 741.03662109 C59.45426961 741.01493339 55.67424772 741.00294002 51.89408493 740.99774551 C50.44994161 740.99404241 49.005803 740.9868114 47.5616951 740.97603989 C45.54329106 740.96157983 43.52480348 740.96068355 41.50634766 740.96044922 C39.78093246 740.95378738 39.78093246 740.95378738 38.0206604 740.94699097 C35.16335945 740.90878494 35.16335945 740.90878494 33.3125 743.1875 C30.75 742.8125 30.75 742.8125 28.3125 742.1875 C27.9825 742.1875 27.6525 742.1875 27.3125 742.1875 C24.97916667 742.1875 22.64583333 742.1875 20.3125 742.1875 C20.3125 741.8575 20.3125 741.5275 20.3125 741.1875 C2.9875 740.6925 2.9875 740.6925 -14.6875 740.1875 C-14.6875 740.8475 -14.6875 741.5075 -14.6875 742.1875 C-16.0075 741.8575 -17.3275 741.5275 -18.6875 741.1875 C-18.6875 740.8575 -18.6875 740.5275 -18.6875 740.1875 C-21.9875 740.1875 -25.2875 740.1875 -28.6875 740.1875 C-28.6875 739.5275 -28.6875 738.8675 -28.6875 738.1875 C-29.78964844 738.23261719 -30.89179688 738.27773438 -32.02734375 738.32421875 C-37.28030264 738.31844754 -42.15865697 737.20901082 -47.25 736 C-48.22090576 735.77223877 -49.19181152 735.54447754 -50.19213867 735.30981445 C-88.29227936 726.15783067 -121.39204856 704.20854634 -142.22924805 670.64404297 C-148.27643031 660.64744378 -153.91877993 650.27197081 -157.6875 639.1875 C-158.3475 639.1875 -159.0075 639.1875 -159.6875 639.1875 C-159.81125 637.4859375 -159.81125 637.4859375 -159.9375 635.75 C-160.52697188 630.31660706 -161.86402586 625.08904197 -163.16821289 619.79492188 C-164.60546605 613.8386194 -165.54543883 607.93268949 -166.29296875 601.84765625 C-166.54172917 599.21974465 -166.54172917 599.21974465 -167.6875 597.1875 C-167.78424469 594.85358078 -167.81305258 592.51678302 -167.81334114 590.18085957 C-167.81479458 589.4476233 -167.81624802 588.71438703 -167.81774551 587.95893148 C-167.82142491 585.47645095 -167.81791006 582.99403109 -167.81448364 580.5115509 C-167.81563473 578.72367864 -167.81722218 576.93580662 -167.81921089 575.14793509 C-167.8234067 570.2143638 -167.82131229 565.28081171 -167.81822467 560.34724033 C-167.81597147 555.03321949 -167.81945002 549.71920206 -167.82220459 544.40518188 C-167.82666406 533.98092767 -167.82568448 523.55668063 -167.82279195 513.13242612 C-167.82053607 504.65154833 -167.82022621 496.17067255 -167.82131577 487.68979454 C-167.821469 486.48387329 -167.82162223 485.27795203 -167.82178011 484.03548771 C-167.82209984 481.58561359 -167.82242405 479.13573948 -167.8227527 476.68586536 C-167.82560866 453.67554751 -167.82231999 430.66523363 -167.81695233 407.65491643 C-167.81249609 387.94303799 -167.81325024 368.23116544 -167.81787109 348.51928711 C-167.82323538 325.62538912 -167.82532142 302.73149464 -167.82225883 279.83759612 C-167.8219403 277.39017626 -167.82162592 274.9427564 -167.82131577 272.49533653 C-167.82116149 271.2912467 -167.82100721 270.08715687 -167.82084826 268.84657947 C-167.81998778 260.39397847 -167.82143614 251.94137971 -167.82379532 243.48877907 C-167.82661464 233.16011874 -167.82581088 222.831466 -167.82051457 212.50280652 C-167.81790433 207.24032159 -167.8168264 201.97784926 -167.82016373 196.71536446 C-167.84380247 156.24464208 -167.84380247 156.24464208 -166.6875 137.1875 C-166.0275 137.1875 -165.3675 137.1875 -164.6875 137.1875 C-164.67332031 136.61386719 -164.65914062 136.04023438 -164.64453125 135.44921875 C-163.05564073 107.14979025 -148.6926847 80.15253024 -131.6875 58.1875 C-131.0275 57.1975 -130.3675 56.2075 -129.6875 55.1875 C-128.04447047 53.49752677 -126.37278688 51.83533606 -124.6875 50.1875 C-124.089375 49.56746094 -123.49125 48.94742188 -122.875 48.30859375 C-122.25625 47.67050781 -121.6375 47.03242188 -121 46.375 C-120.41863281 45.77042969 -119.83726562 45.16585937 -119.23828125 44.54296875 C-117.6875 43.1875 -117.6875 43.1875 -115.6875 43.1875 C-115.3575 42.1975 -115.0275 41.2075 -114.6875 40.1875 C-112.7369491 38.57592555 -110.80553435 37.08846406 -108.75 35.625 C-104.54368628 32.61974354 -104.54368628 32.61974354 -100.6875 29.1875 C-81.43145095 17.26325205 -55.9502659 4.44968839 -32.6875 5.1875 C-32.3575 4.5275 -32.0275 3.8675 -31.6875 3.1875 C-22.4475 3.1875 -13.2075 3.1875 -3.6875 3.1875 C-4.75395115 1.89116379 -4.75395115 1.89116379 -7.25 2.125 C-8.054375 2.145625 -8.85875 2.16625 -9.6875 2.1875 C-6.36599055 0.1914385 -3.84659894 -0.05649211 0 0 Z M0.3125 1.1875 C1.3125 3.1875 1.3125 3.1875 1.3125 3.1875 Z M13.3125 1.1875 C17.3125 2.1875 17.3125 2.1875 17.3125 2.1875 Z M75.3125 1.1875 C79.3125 2.1875 79.3125 2.1875 79.3125 2.1875 Z " fill="#599FB9" transform="translate(306.6875,143.8125)"/>
<path d="M0 0 C2.875 2.4375 2.875 2.4375 5 5 C5.33 5.33 5.66 5.66 6 6 C5.94034004 12.24653268 4.27967397 17.80013957 2.03515625 23.5625 C1.5783976 24.77400978 1.5783976 24.77400978 1.1124115 26.00999451 C0.45181387 27.75870715 -0.21350167 29.50564342 -0.88305664 31.25094604 C-2.3394837 35.0480173 -3.77237867 38.85385129 -5.20742798 42.65904236 C-5.96904097 44.67745942 -6.73190023 46.69540663 -7.49594116 48.71290588 C-11.74079461 59.92624858 -15.87372701 71.18010013 -20 82.4375 C-20.76012602 84.50872475 -21.52029866 86.57993239 -22.28051758 88.65112305 C-29.23569872 107.60888084 -36.13772025 126.58589806 -43.02783203 145.56738281 C-46.37015968 154.77501932 -49.71577816 163.98145985 -53.0625 173.1875 C-53.56367844 174.56615234 -53.56367844 174.56615234 -54.07498169 175.97265625 C-59.32290568 190.40678333 -64.59164819 204.8331949 -69.87231445 219.25537109 C-74.93053269 233.07095997 -79.97815654 246.89040519 -85.02275658 260.71097088 C-86.75176467 265.44783561 -88.48125232 270.18452505 -90.2109375 274.92114258 C-91.19665301 277.62059144 -92.18232749 280.32005528 -93.16796875 283.01953125 C-93.41166576 283.68696665 -93.65536278 284.35440205 -93.90644455 285.04206276 C-96.99236805 293.49430397 -100.0744121 301.94794482 -103.15194702 310.40324402 C-104.88072389 315.15227766 -106.611213 319.90068643 -108.34191895 324.64901733 C-109.14298731 326.84827006 -109.94322653 329.04782502 -110.74255371 331.24771118 C-112.83676182 337.01103226 -114.94337331 342.76930789 -117.07989502 348.51708984 C-117.67863928 350.1328057 -118.27276167 351.75024434 -118.86151123 353.36962891 C-119.63116235 355.48147299 -120.41971496 357.58514218 -121.21484375 359.6875 C-121.84894165 361.39486328 -121.84894165 361.39486328 -122.49584961 363.13671875 C-124.2312586 366.44022088 -125.86552249 368.00266384 -129 370 C-134.26089025 371.54835566 -138.80988807 369.8733569 -143.546875 367.5 C-145.62523864 366.3524228 -147.69242417 365.18444526 -149.75 364 C-151.4678865 363.04284951 -153.18578253 362.08571585 -154.90411377 361.12936401 C-156.71197146 360.11913791 -158.51467767 359.10021376 -160.31640625 358.07910156 C-163.98746241 356.00151779 -167.67818545 353.96100738 -171.375 351.9296875 C-171.98378998 351.59507004 -172.59257996 351.26045258 -173.21981812 350.91569519 C-174.4485035 350.2403747 -175.67721238 349.56509693 -176.90594482 348.88986206 C-179.97405223 347.20135195 -183.03747373 345.50438145 -186.1015625 343.80859375 C-192.09581019 340.49314701 -198.10665092 337.20895863 -204.125 333.9375 C-212.62714206 329.31212335 -221.1003032 324.63542737 -229.5625 319.9375 C-230.15057434 319.61135712 -230.73864868 319.28521423 -231.34454346 318.94918823 C-233.02321612 318.01790056 -234.7010758 317.08514793 -236.37890625 316.15234375 C-237.82632202 315.3478479 -237.82632202 315.3478479 -239.30297852 314.52709961 C-241.10684064 313.50572208 -242.88800499 312.4432239 -244.64428711 311.34204102 C-248.1079782 309.36878887 -250.06549078 309.33313403 -254 310 C-257.0295044 311.96917786 -259.46358394 314.44077445 -262 317 C-262.81984375 317.79535156 -263.6396875 318.59070313 -264.484375 319.41015625 C-268.89724932 323.73611032 -273.0771765 328.1754193 -277.08984375 332.87109375 C-279.4618828 335.51477735 -281.97260891 338.00663066 -284.5 340.5 C-287.61579123 343.57390527 -290.65877238 346.66702145 -293.5 350 C-296.4504273 353.42078527 -299.49622887 356.74207853 -302.625 360 C-303.52476562 360.94875 -304.42453125 361.8975 -305.3515625 362.875 C-308 365 -308 365 -310.8359375 365.3125 C-311.55007813 365.209375 -312.26421875 365.10625 -313 365 C-314.2462725 361.26118251 -313.57870943 360.0785117 -312.28100586 356.40551758 C-311.87986069 355.25614212 -311.47871552 354.10676666 -311.06541443 352.92256165 C-310.61545582 351.66313541 -310.16525913 350.40379421 -309.71484375 349.14453125 C-309.256214 347.84219776 -308.79834569 346.5395959 -308.34120178 345.23674011 C-307.13016191 341.7925348 -305.90791926 338.35240379 -304.68359375 334.91290283 C-303.46198925 331.47384231 -302.25219708 328.03063253 -301.04101562 324.58789062 C-299.19312102 319.33810923 -297.32637135 314.09547409 -295.44482422 308.85766602 C-294.0139871 304.87192718 -292.61502033 300.88235809 -291.29345703 296.85913086 C-288.3908556 288.19405925 -284.70499796 282.19439166 -278 275.9375 C-277.21882812 275.14279297 -276.43765625 274.34808594 -275.6328125 273.52929688 C-270.00979947 268.071945 -270.00979947 268.071945 -265.9296875 267.78125 C-264.96289062 268.1834375 -263.99609375 268.585625 -263 269 C-262.38415039 269.25402588 -261.76830078 269.50805176 -261.13378906 269.76977539 C-259.09872633 270.64354135 -257.11416689 271.58911892 -255.125 272.5625 C-254.09246094 273.0565332 -254.09246094 273.0565332 -253.0390625 273.56054688 C-251.3561267 274.36695361 -249.67759707 275.18254494 -248 276 C-247.93941406 276.90363281 -247.87882813 277.80726563 -247.81640625 278.73828125 C-247.73261719 279.91777344 -247.64882813 281.09726562 -247.5625 282.3125 C-247.48128906 283.48425781 -247.40007812 284.65601563 -247.31640625 285.86328125 C-247.1132629 289.02590958 -247.1132629 289.02590958 -246 292 C-242.30225642 293.98447777 -239.09023035 294.2709999 -234.9375 294.25 C-233.91527344 294.25515625 -232.89304687 294.2603125 -231.83984375 294.265625 C-228.99306579 293.99935141 -227.340136 293.62134134 -225 292 C-223.84429296 288.53287889 -223.67164707 285.4585044 -223.4375 281.8125 C-223.35371094 280.54019531 -223.26992188 279.26789063 -223.18359375 277.95703125 C-223.12300781 276.98121094 -223.06242188 276.00539063 -223 275 C-221.40671875 274.45472656 -221.40671875 274.45472656 -219.78125 273.8984375 C-207.60525262 269.61660988 -197.41693839 264.48386098 -190.74609375 252.8046875 C-185.02219342 240.68100192 -184.46777901 228.72818389 -188.7265625 216.02734375 C-191.25807133 210.00918625 -194.70487841 205.76592699 -200 202 C-198.70722863 199.15268674 -197.35425174 197.11038088 -195.13012695 194.91894531 C-194.26331047 194.05719696 -194.26331047 194.05719696 -193.37898254 193.17803955 C-192.75505112 192.56756775 -192.13111969 191.95709595 -191.48828125 191.328125 C-190.51860664 190.36625275 -190.51860664 190.36625275 -189.52934265 189.38494873 C-187.46175974 187.33515238 -185.38763776 185.29214555 -183.3125 183.25 C-181.25603754 181.22133738 -179.20111681 179.1911744 -177.1492157 177.15789795 C-175.87423441 175.89497334 -174.59659246 174.6347266 -173.31575012 173.37774658 C-169.60542019 169.70823585 -166.13676603 165.9012675 -162.72648621 161.95257568 C-160.01849426 158.88996261 -157.1293239 156.02491001 -154.21875 153.15625 C-153.60157104 152.54285767 -152.98439209 151.92946533 -152.34851074 151.29748535 C-149.74741211 148.71250482 -147.14029986 146.13362178 -144.53369141 143.55419922 C-135.34650755 134.49764664 -135.34650755 134.49764664 -126.70507812 124.92773438 C-122.00585908 119.61487161 -116.78691028 114.7545636 -111.73828125 109.77734375 C-107.88304096 105.95548217 -104.06132988 102.15808148 -100.53125 98.03125 C-95.54919511 92.21395096 -89.99289125 86.93669104 -84.54296875 81.56347656 C-79.4132134 76.49939867 -74.39052082 71.41030357 -69.70263672 65.9296875 C-66.49119012 62.28998662 -63.01382797 58.91027832 -59.5625 55.5 C-58.83095703 54.77296875 -58.09941406 54.0459375 -57.34570312 53.296875 C-55.56610176 51.52890501 -53.78419082 49.76333622 -52 48 C-64.96059488 54.79508576 -77.73541387 61.92441251 -90.51318359 69.05517578 C-93.82615628 70.90303605 -97.14137964 72.74679598 -100.45703125 74.58984375 C-111.87027832 80.94526053 -123.20289531 87.42030428 -134.47119141 94.02929688 C-141.72577388 98.27740029 -149.04179115 102.39626366 -156.40234375 106.45703125 C-165.64607602 111.55876327 -174.82871515 116.76942226 -184 122 C-185.08941895 122.62084473 -186.17883789 123.24168945 -187.30126953 123.88134766 C-190.60130155 125.76714877 -193.89526972 127.66311718 -197.1875 129.5625 C-198.72011475 130.43793457 -198.72011475 130.43793457 -200.28369141 131.33105469 C-201.23550293 131.8830957 -202.18731445 132.43513672 -203.16796875 133.00390625 C-204.00610107 133.48674072 -204.8442334 133.9695752 -205.70776367 134.46704102 C-208.12109132 136.08098119 -209.95387251 137.95332513 -212 140 C-214.03515625 140.20703125 -214.03515625 140.20703125 -216.0625 139.8125 C-216.73410156 139.69519531 -217.40570312 139.57789063 -218.09765625 139.45703125 C-220 139 -220 139 -223 138 C-223.33 132.06 -223.66 126.12 -224 120 C-228.25947361 119.14810528 -231.81656973 118.83536853 -236.125 118.8125 C-237.95417969 118.79123047 -237.95417969 118.79123047 -239.8203125 118.76953125 C-243.15725283 118.74870866 -243.15725283 118.74870866 -246 121 C-246.38384509 123.93597539 -246.603843 126.68027373 -246.6875 129.625 C-246.72166016 130.42679688 -246.75582031 131.22859375 -246.79101562 132.0546875 C-246.87356878 134.03596318 -246.93845916 136.01796037 -247 138 C-248.27875 138.226875 -249.5575 138.45375 -250.875 138.6875 C-260.92245804 140.94659827 -269.9201956 146.15233594 -275.75 154.75 C-280.24608097 162.57377247 -281.33847139 169.97204118 -281.0078125 178.921875 C-282.62317352 183.93330998 -286.57646462 185.48623946 -291 188 C-291.98258789 188.57588867 -292.96517578 189.15177734 -293.97753906 189.74511719 C-296.73225358 191.34520144 -299.4976746 192.92403247 -302.27212524 194.48959351 C-305.37814553 196.2424908 -308.47786548 198.00647151 -311.578125 199.76953125 C-312.2054805 200.12598221 -312.832836 200.48243317 -313.47920227 200.84968567 C-319.45188022 204.24748849 -325.38512481 207.71133938 -331.3125 211.1875 C-340.41684106 216.52305311 -349.57689994 221.75238078 -358.78051758 226.91479492 C-359.68439209 227.42244385 -360.5882666 227.93009277 -361.51953125 228.453125 C-362.31464111 228.89817383 -363.10975098 229.34322266 -363.92895508 229.80175781 C-365.65875071 230.80256378 -367.33718844 231.89145896 -369 233 C-376.45877919 233.95922216 -381.20161384 231.32536365 -387.625 227.75 C-388.62917969 227.20859375 -389.63335937 226.6671875 -390.66796875 226.109375 C-393.78784257 224.42253459 -396.89457585 222.71326932 -400 221 C-401.86139237 219.98329994 -403.72335049 218.96763483 -405.5859375 217.953125 C-408.29432921 216.47699311 -411.00163818 214.99910004 -413.70507812 213.51391602 C-420.46247394 209.80764184 -427.28091205 206.23068811 -434.125 202.6875 C-457.16032484 190.72049897 -457.16032484 190.72049897 -460 186 C-460 183 -460 183 -459 180 C-455.82153932 177.10292035 -452.74836497 175.24152932 -448.78515625 173.6171875 C-447.73158936 173.18204834 -446.67802246 172.74690918 -445.5925293 172.29858398 C-443.84516479 171.59390991 -443.84516479 171.59390991 -442.0625 170.875 C-440.79390366 170.35715351 -439.5254349 169.8389944 -438.25708008 169.32055664 C-423.66722894 163.38226032 -408.97670332 157.69247034 -394.30001831 151.97331238 C-380.91150134 146.75570368 -367.54534132 141.48310218 -354.1875 136.1875 C-350.16278591 134.59238359 -346.13803101 132.99737017 -342.11328125 131.40234375 C-341.15267288 131.02160202 -340.19206451 130.64086029 -339.2023468 130.24858093 C-329.45878549 126.38749933 -319.70789198 122.54515622 -309.95507812 118.70751953 C-308.65103464 118.1943538 -307.34699819 117.68117019 -306.04296875 117.16796875 C-305.3975412 116.91396301 -304.75211365 116.65995728 -304.08712769 116.39825439 C-298.98976698 114.39142442 -293.89497366 112.37813835 -288.80078125 110.36328125 C-272.76140968 104.02046925 -256.71187829 97.7063786 -240.63220215 91.46640015 C-221.39620591 84.00057179 -202.19085826 76.45673169 -182.98353577 68.91751099 C-175.29349809 65.89925616 -167.6021647 62.88432216 -159.91015625 59.87109375 C-155.6067098 58.18505157 -151.30332447 56.4988535 -147 54.8125 C-145.40588791 54.18781326 -145.40588791 54.18781326 -143.77957153 53.55050659 C-130.17407059 48.21779406 -116.57885881 42.85992669 -102.99377441 37.47543335 C-84.44739868 30.12470402 -65.8625066 22.87693118 -47.25537109 15.68139648 C-46.2915451 15.30844955 -45.32771912 14.93550262 -44.33468628 14.55125427 C-42.42718752 13.81398559 -40.51909343 13.07825516 -38.61038208 12.34413147 C-33.61544854 10.41904838 -28.63970003 8.45583179 -23.68164062 6.4375 C-22.64400574 6.01927979 -21.60637085 5.60105957 -20.53729248 5.17016602 C-18.55736346 4.37073687 -16.58120468 3.56188056 -14.60968018 2.74194336 C-9.60153376 0.72998418 -5.49588478 -0.72403003 0 0 Z " fill="#FDFEFE" transform="translate(748,235)"/>
<path d="M0 0 C6.6 0 13.2 0 20 0 C20 39.6 20 79.2 20 120 C13.4 120 6.8 120 0 120 C-0.33 115.71 -0.66 111.42 -1 107 C-2.546875 108.85625 -2.546875 108.85625 -4.125 110.75 C-9.95812533 117.37961634 -15.7333316 120.51034218 -24.61328125 121.3359375 C-36.11450274 121.45738651 -43.87523039 119.72292421 -52.3203125 111.71875 C-62.30779926 101.49899611 -65.03366846 88.82260819 -65.375 74.8125 C-65.03619252 62.27662335 -61.36674358 50.44864218 -52.6875 41.125 C-43.80557035 32.91414948 -34.94918854 31.51656125 -23.27734375 31.7265625 C-13.44864103 32.16033964 -8.53073008 36.41061118 -1 43 C-0.67 28.81 -0.34 14.62 0 0 Z " fill="#FDFEFE" transform="translate(633,648)"/>
<path d="M0 0 C8.53794509 7.0271153 10.80322341 14.6103591 11.8984375 25.5625 C4.9684375 25.5625 -1.9615625 25.5625 -9.1015625 25.5625 C-12.1015625 17.5625 -12.1015625 17.5625 -13.1015625 14.5625 C-15.39690508 13.42704438 -15.39690508 13.42704438 -18.1015625 12.5625 C-19.308125 12.0365625 -19.308125 12.0365625 -20.5390625 11.5 C-28.39658402 8.62529701 -36.26204179 8.74538109 -44.05078125 11.5703125 C-47.72021915 13.3456215 -50.28836071 15.93609642 -52.1015625 19.5625 C-52.77241891 24.35433149 -52.63660447 27.64775083 -50.1640625 31.875 C-43.88692908 38.23924022 -34.09545794 39.72296018 -25.7265625 41.5625 C1.51721865 47.59457806 1.51721865 47.59457806 8.7734375 58.5 C13.4584233 66.8919611 14.44465507 76.28995759 12.140625 85.63671875 C8.87490366 95.06102482 4.14585622 102.23726101 -4.765625 106.98046875 C-20.96392703 114.26756769 -39.19654521 114.64970145 -55.82421875 108.56640625 C-64.21629689 104.81785821 -71.67459305 98.25987685 -75.4609375 89.7578125 C-76.7274041 85.41784767 -76.87652303 81.0632894 -77.1015625 76.5625 C-70.5015625 76.5625 -63.9015625 76.5625 -57.1015625 76.5625 C-56.3796875 78.13 -55.6578125 79.6975 -54.9140625 81.3125 C-51.80615771 87.4847815 -48.47067287 90.23701235 -42.0859375 92.91870117 C-38.67161989 94.02642208 -35.35309426 94.05078231 -31.7890625 94 C-31.04503174 93.99242676 -30.30100098 93.98485352 -29.53442383 93.97705078 C-22.00558558 93.7527492 -15.98667478 92.37891913 -10.4765625 87 C-8.52100635 82.11110962 -8.33914362 77.75647864 -9.1015625 72.5625 C-11.64763753 67.5764364 -16.07289037 65.59793783 -21.1015625 63.5625 C-26.83480516 61.89257499 -32.66481869 60.6246592 -38.484375 59.29492188 C-50.55022073 56.43549965 -62.64552268 53.4654097 -69.8515625 42.6875 C-74.46161136 34.68291355 -74.93779869 26.65785908 -74.1015625 17.5625 C-73.1984852 14.23819923 -71.88624715 11.4978366 -70.1015625 8.5625 C-69.7509375 7.93859375 -69.4003125 7.3146875 -69.0390625 6.671875 C-64.36827598 -0.78840903 -56.32370024 -5.21086497 -48.0703125 -7.7421875 C-31.75420973 -11.19434994 -13.69518581 -9.8882208 0 0 Z " fill="#FBFDFD" transform="translate(359.1015625,657.4375)"/>
<path d="M0 0 C1.25358944 1.0335717 2.48433617 2.09564207 3.6875 3.1875 C4.23148437 3.67734375 4.77546875 4.1671875 5.3359375 4.671875 C15.16036664 14.74565513 15.6875 28.99206097 15.6875 42.1875 C-5.1025 42.1875 -25.8925 42.1875 -47.3125 42.1875 C-44.34680126 54.45960487 -44.34680126 54.45960487 -36.34375 62.42578125 C-29.82229962 65.76687643 -23.66629368 66.3589524 -16.59765625 64.45703125 C-11.28910109 62.63638852 -11.28910109 62.63638852 -7.6328125 58.5625 C-4.9653958 55.8322149 -4.41479014 55.8252148 -0.765625 55.69921875 C0.96942356 55.73233036 2.70413171 55.79178808 4.4375 55.875 C5.76974609 55.90883789 5.76974609 55.90883789 7.12890625 55.94335938 C9.31682812 56.00217448 11.50129671 56.08428732 13.6875 56.1875 C12.44627471 64.31966569 7.11113516 70.54733828 0.90234375 75.68359375 C-10.20031148 83.22243372 -24.96819687 83.90337867 -37.84375 81.5390625 C-48.95147927 78.18956682 -57.01853636 71.1377099 -62.49609375 60.99609375 C-68.73711155 47.85109289 -69.4208326 32.85981729 -64.5703125 19.15625 C-59.66404113 7.57623062 -52.97844807 0.63195286 -41.70703125 -4.8671875 C-28.5874503 -10.04653267 -11.38299218 -7.95104136 0 0 Z " fill="#FCFDFD" transform="translate(449.3125,686.8125)"/>
<path d="M0 0 C6.93 0 13.86 0 21 0 C32.7485875 32.87646401 32.7485875 32.87646401 37.75 48.375 C38.08451172 49.40036865 38.41902344 50.4257373 38.76367188 51.48217773 C39.06337891 52.42391846 39.36308594 53.36565918 39.671875 54.3359375 C39.9306543 55.14595215 40.18943359 55.9559668 40.45605469 56.79052734 C41 59 41 59 41 63 C41.66 63 42.32 63 43 63 C43.08701172 61.93378418 43.17402344 60.86756836 43.26367188 59.76904297 C44.00916275 53.85935998 45.93592899 48.33826327 47.78125 42.6953125 C48.15479614 41.53498505 48.52834229 40.37465759 48.91320801 39.1791687 C50.10216254 35.49226106 51.30113825 31.80869644 52.5 28.125 C53.30660675 25.62519906 54.11260295 23.12520102 54.91796875 20.625 C55.68435349 18.25242891 56.45126215 15.88002698 57.21875 13.5078125 C57.58230591 12.3839212 57.94586182 11.26002991 58.32043457 10.1020813 C58.65748413 9.06695404 58.99453369 8.03182678 59.34179688 6.96533203 C59.63856323 6.05236359 59.93532959 5.13939514 60.24108887 4.19876099 C61 2 61 2 62 0 C68.93 0 75.86 0 83 0 C82.39776611 1.74466553 81.79553223 3.48933105 81.17504883 5.28686523 C80.33146385 7.73158081 79.4879394 10.17631717 78.64453125 12.62109375 C78.42116404 13.26855497 78.19779682 13.9160162 77.9676609 14.58309746 C75.00288471 23.17817116 72.04586368 31.77584105 69.09909058 40.37710571 C67.39334829 45.35509664 65.68446734 50.33200769 63.9753418 55.30883789 C63.10649144 57.84126902 62.2387239 60.37403965 61.37280273 62.9074707 C60.09013193 66.65986605 58.80105365 70.41004528 57.51171875 74.16015625 C56.94127083 75.83381004 56.94127083 75.83381004 56.35929871 77.54127502 C50.59641643 94.2565926 45.22691758 108.69901593 28.77734375 117.140625 C24.90346365 118.33929395 21.27894374 118.25204463 17.25 118.1875 C16.47011719 118.18685547 15.69023438 118.18621094 14.88671875 118.18554688 C9.14057707 118.14057707 9.14057707 118.14057707 8 117 C7.92674832 114.13732433 7.90761795 111.299281 7.9375 108.4375 C7.94201172 107.63119141 7.94652344 106.82488281 7.95117188 105.99414062 C7.96299482 103.99606244 7.98093086 101.99802217 8 100 C8.88042969 100.02320313 9.76085937 100.04640625 10.66796875 100.0703125 C12.41013672 100.09738281 12.41013672 100.09738281 14.1875 100.125 C15.33605469 100.14820313 16.48460937 100.17140625 17.66796875 100.1953125 C20.95311679 100.00274814 23.10497571 99.53173103 26 98 C27.27587495 95.6859613 27.27587495 95.6859613 28 93 C28.391875 92.21625 28.78375 91.4325 29.1875 90.625 C31.05262261 84.59921926 28.29594533 78.5308045 26.11328125 72.90234375 C25.67239166 71.7387735 25.67239166 71.7387735 25.22259521 70.55169678 C24.58868383 68.88088956 23.95156766 67.21129537 23.31155396 65.54281616 C21.95495727 62.00510605 20.61505363 58.46114785 19.27391052 54.91755676 C18.5767797 53.07625423 17.87882282 51.23526425 17.18006897 49.39457703 C13.74514665 40.34542982 10.35365669 31.28052842 6.99472046 22.20291138 C6.07319277 19.7163523 5.1456545 17.23208788 4.21801758 14.74780273 C3.65668231 13.23174927 3.09570831 11.71556198 2.53515625 10.19921875 C2.27651794 9.5104364 2.01787964 8.82165405 1.75140381 8.11199951 C0.70209479 5.25452164 0 3.07208772 0 0 Z " fill="#FCFDFD" transform="translate(663,682)"/>
<path d="M0 0 C7.3344648 5.18779218 12.18931324 11.12256649 14 20 C14.08722819 22.13885603 14.1176739 24.28026847 14.11352539 26.42089844 C14.11341209 28.37246857 14.11341209 28.37246857 14.11329651 30.36346436 C14.10819024 31.77876829 14.10297425 33.19407184 14.09765625 34.609375 C14.09579035 36.06097363 14.09436726 37.51257288 14.09336853 38.96417236 C14.08955688 42.77819569 14.07973815 46.59218073 14.06866455 50.40618896 C14.05842135 54.30073529 14.05386468 58.19528783 14.04882812 62.08984375 C14.03811465 69.72658195 14.02052882 77.36328072 14 85 C7.4 85 0.8 85 -6 85 C-6.01401855 82.52608765 -6.01401855 82.52608765 -6.02832031 80.00219727 C-6.06832483 73.85739573 -6.13411413 67.71308933 -6.20751953 61.56860352 C-6.237848 58.91385189 -6.25691139 56.25970245 -6.27099609 53.60473633 C-6.29250897 49.77902996 -6.339206 45.95431359 -6.390625 42.12890625 C-6.39185364 40.95042618 -6.39308228 39.77194611 -6.39434814 38.55775452 C-6.52971325 30.86582968 -7.29109828 23.59651076 -13.0625 18 C-18.76527878 15.05663031 -26.07392372 14.84445273 -32.203125 16.6484375 C-36.9747295 19.07573196 -38.86302158 22.31508578 -41 27 C-41.86745129 30.51133078 -42.14500487 33.82243461 -42.20532227 37.43286133 C-42.22526749 38.49358353 -42.24521271 39.55430573 -42.26576233 40.64717102 C-42.29083107 42.34742683 -42.29083107 42.34742683 -42.31640625 44.08203125 C-42.33718735 45.25134689 -42.35796844 46.42066254 -42.37937927 47.62541199 C-42.44467414 51.35438253 -42.50366659 55.08342247 -42.5625 58.8125 C-42.60570429 61.34310609 -42.64931919 63.8737052 -42.69335938 66.40429688 C-42.80033504 72.60279376 -42.90165909 78.80136035 -43 85 C-49.6 85 -56.2 85 -63 85 C-63 56.29 -63 27.58 -63 -2 C-56.07 -2 -49.14 -2 -42 -2 C-42 1.96 -42 5.92 -42 10 C-41.01 8.35 -40.02 6.7 -39 5 C-37.203125 3.26953125 -37.203125 3.26953125 -35.25 1.8125 C-34.61578125 1.32394531 -33.9815625 0.83539062 -33.328125 0.33203125 C-24.13337681 -4.92872233 -9.32168489 -5.28877378 0 0 Z " fill="#FDFEFE" transform="translate(541,683)"/>
<path d="M0 0 C1.76758352 0.59461671 3.51939784 1.23865729 5.25 1.93359375 C6.87075965 2.32819125 8.4972197 2.70022239 10.12890625 3.046875 C31.01518729 8.28044386 31.01518729 8.28044386 37.3125 14.68359375 C40.47390533 19.98659624 40.54054377 24.52623112 39.8125 30.55859375 C36.96542092 36.70828457 32.07148089 40.53751415 25.75 42.87109375 C16.3149532 45.48834988 6.80713416 43.65029732 -1.83984375 39.28515625 C-4.0852944 37.69635068 -5.25289116 35.89591568 -6.875 33.68359375 C-10.0402883 30.19531685 -12.61010434 29.6598091 -17.1484375 29.41796875 C-22.69244564 29.34793917 -28.21895013 29.56257389 -33.75 29.93359375 C-31.25250071 23.78690341 -25.64770972 19.10602162 -21.0949707 14.41357422 C-19.9089521 13.17930914 -18.73655354 11.93180702 -17.57836914 10.67138672 C-6.68403442 -1.17250398 -6.68403442 -1.17250398 0 0 Z " fill="#FCFDFE" transform="translate(496.75,446.06640625)"/>
<path d="M0 0 C6.50053314 5.56955226 9.25033753 13.29751132 10.34765625 21.64453125 C10.66470998 30.39797119 8.3263416 38.51510356 2.71875 45.3046875 C-1.7614307 49.72377483 -6.2614909 51.22388341 -12.5 51.5 C-18.73578346 51.22400405 -23.27855259 49.74000274 -27.71875 45.26953125 C-33.654899 37.98028946 -35.62834748 30.37525492 -35.34375 21.0546875 C-34.3539306 12.25879235 -30.84219697 4.72281914 -24 -1 C-16.67818275 -5.64273235 -7.05065167 -4.80726251 0 0 Z " fill="#5197B3" transform="translate(623,700)"/>
<path d="M0 0 C4.06049373 3.44126844 5.31032507 6.79476919 6 12 C7.15757812 12.13277344 8.31515625 12.26554687 9.5078125 12.40234375 C11.04688408 12.58065082 12.58594607 12.75904062 14.125 12.9375 C14.88554688 13.02451172 15.64609375 13.11152344 16.4296875 13.20117188 C20.64329577 13.6915487 24.821195 14.25902978 29 15 C27.30935414 19.28436964 24.18644695 22.22375599 21.0625 25.5 C19.98914493 26.63377146 18.91748211 27.76914779 17.84765625 28.90625 C17.09295044 29.70301147 17.09295044 29.70301147 16.32299805 30.51586914 C14.86360206 32.08349231 14.86360206 32.08349231 13.3984375 34.40234375 C12 36 12 36 10.00390625 36.34765625 C-3.53853979 34.76589855 -21.62686547 32.37313453 -31.625 22.375 C-33.62294341 17.47095709 -33.96710549 13.21203416 -33 8 C-30.87648938 3.42282163 -28.09503207 0.70082052 -23.875 -2 C-16.44252613 -4.53791791 -6.75806672 -4.17686068 0 0 Z " fill="#FCFDFE" transform="translate(525,394)"/>
<path d="M0 0 C6.15234375 -0.09765625 6.15234375 -0.09765625 8 0 C8.33 0.33 8.66 0.66 9 1 C9.99 0.67 10.98 0.34 12 0 C14.03992808 -0.09398043 16.08291414 -0.12992069 18.125 -0.125 C19.20007813 -0.12757813 20.27515625 -0.13015625 21.3828125 -0.1328125 C24 0 24 0 25 1 C25 0.67 25 0.34 25 0 C28.58331625 -0.02907084 32.16660208 -0.04682263 35.75 -0.0625 C36.76578125 -0.07087891 37.7815625 -0.07925781 38.828125 -0.08789062 C39.8078125 -0.09111328 40.7875 -0.09433594 41.796875 -0.09765625 C42.69760742 -0.10289307 43.59833984 -0.10812988 44.52636719 -0.11352539 C47 0 47 0 49.26269531 0.56860352 C49.83600586 0.71096436 50.40931641 0.8533252 51 1 C51.33 0.67 51.66 0.34 52 0 C54.33291811 -0.04401732 56.66700175 -0.03954234 59 0 C60.32 0 61.64 0 63 0 C63.825 0.185625 64.65 0.37125 65.5 0.5625 C68.07209227 1.01261615 69.55207232 0.81597589 72 0 C72 0.66 72 1.32 72 2 C72.84820312 1.67257813 73.69640625 1.34515625 74.5703125 1.0078125 C78.20190011 -0.05932828 81.10336301 -0.20197218 84.875 -0.125 C86.02742188 -0.10695312 87.17984375 -0.08890625 88.3671875 -0.0703125 C89.23601562 -0.04710937 90.10484375 -0.02390625 91 0 C91 0.66 91 1.32 91 2 C91.53915039 1.67402832 92.07830078 1.34805664 92.63378906 1.01220703 C95.53698459 -0.22970884 97.70643701 -0.22748534 100.859375 -0.1953125 C101.97441406 -0.18886719 103.08945312 -0.18242187 104.23828125 -0.17578125 C105.39714844 -0.15902344 106.55601562 -0.14226562 107.75 -0.125 C109.51150391 -0.11146484 109.51150391 -0.11146484 111.30859375 -0.09765625 C114.20593536 -0.07410063 117.10286441 -0.04120652 120 0 C120 0.66 120 1.32 120 2 C120.94875 1.67 121.8975 1.34 122.875 1 C126.01857618 -0.00594438 127.73512765 0 131 0 C131 0.66 131 1.32 131 2 C131.99 1.34 132.98 0.68 134 0 C136.59375 0.0234375 136.59375 0.0234375 139.5 0.375 C143.95794914 0.89030057 147.64032092 1.20267009 152 0 C152 0.66 152 1.32 152 2 C152.66 2 153.32 2 154 2 C154.33 1.34 154.66 0.68 155 0 C155 0.66 155 1.32 155 2 C155.66 2 156.32 2 157 2 C157 1.34 157 0.68 157 0 C157.886875 0.185625 158.77375 0.37125 159.6875 0.5625 C162.85178811 0.98042484 164.94839642 0.80777742 168 0 C168 0.66 168 1.32 168 2 C168.66 2 169.32 2 170 2 C170.33 1.34 170.66 0.68 171 0 C172.66666667 0 174.33333333 0 176 0 C176 0.66 176 1.32 176 2 C177.32 2 178.64 2 180 2 C180 1.34 180 0.68 180 0 C181.32 0 182.64 0 184 0 C184 0.66 184 1.32 184 2 C184.66 2 185.32 2 186 2 C186.33 1.34 186.66 0.68 187 0 C187 0.66 187 1.32 187 2 C189.97 2 192.94 2 196 2 C196 1.34 196 0.68 196 0 C197.175625 0.2784375 197.175625 0.2784375 198.375 0.5625 C200.97089775 1.25962266 200.97089775 1.25962266 203 0 C203 0.66 203 1.32 203 2 C204.41702513 1.85769192 205.8336096 1.71099254 207.25 1.5625 C208.03890625 1.48128906 208.8278125 1.40007812 209.640625 1.31640625 C211.82364639 1.02365007 213.8773182 0.57935581 216 0 C216 0.66 216 1.32 216 2 C217.32 2 218.64 2 220 2 C220 1.34 220 0.68 220 0 C221.2375 0.185625 222.475 0.37125 223.75 0.5625 C226.76279577 0.94711223 229.10010827 1.0874594 232 0 C232 0.66 232 1.32 232 2 C234.76276177 1.47731534 237.3260876 0.89130413 240 0 C240 0.66 240 1.32 240 2 C240.94875 1.649375 241.8975 1.29875 242.875 0.9375 C246 0 246 0 248 1 C249.9593604 1.08510205 251.92162794 1.10717656 253.8828125 1.09765625 C255.63271484 1.09282227 255.63271484 1.09282227 257.41796875 1.08789062 C259.25294922 1.07532227 259.25294922 1.07532227 261.125 1.0625 C262.97158203 1.05573242 262.97158203 1.05573242 264.85546875 1.04882812 C267.90369392 1.0370133 270.95182314 1.02054028 274 1 C274 0.67 274 0.34 274 0 C277.89254042 -0.07485655 281.24107857 0.06026964 285 1 C286.485 0.505 286.485 0.505 288 0 C288 0.66 288 1.32 288 2 C289.093125 1.814375 290.18625 1.62875 291.3125 1.4375 C295 1 295 1 298 2 C298.33 1.34 298.66 0.68 299 0 C299 0.66 299 1.32 299 2 C299.66 2 300.32 2 301 2 C301 1.34 301 0.68 301 0 C302.27875 0.165 303.5575 0.33 304.875 0.5 C309.25304369 0.99955491 313.53215993 1.04770805 317.93359375 0.9375 C320 1 320 1 322 2 C322.33 1.34 322.66 0.68 323 0 C326.96 0.99 326.96 0.99 331 2 C331 1.34 331 0.68 331 0 C331.60328125 0.08378906 332.2065625 0.16757813 332.828125 0.25390625 C333.62734375 0.35574219 334.4265625 0.45757812 335.25 0.5625 C336.03890625 0.66691406 336.8278125 0.77132812 337.640625 0.87890625 C340.00532874 1.00027349 341.7511037 0.69633257 344 0 C344 0.66 344 1.32 344 2 C347.96 2 351.92 2 356 2 C356.33 1.34 356.66 0.68 357 0 C357 0.66 357 1.32 357 2 C358.32 2 359.64 2 361 2 C361 2.66 361 3.32 361 4 C262.38648164 4 163.77296329 4 2 4 C2 3.01 2 2.02 2 1 C1.34 0.67 0.68 0.34 0 0 Z M16 1 C20 2 20 2 20 2 Z M78 1 C82 2 82 2 82 2 Z " fill="#45A3B0" transform="translate(304,144)"/>
<path d="M0 0 C0.33 0 0.66 0 1 0 C1.33 149.16 1.66 298.32 2 452 C1.67 452 1.34 452 1 452 C-0.62328543 447.01854296 -1.28724477 442.58928528 -1.24888897 437.33622074 C-1.25149625 436.5927213 -1.25410354 435.84922186 -1.25678983 435.08319214 C-1.26307775 432.59598814 -1.25513418 430.10903782 -1.24723816 427.62184143 C-1.24882677 425.81896288 -1.25129087 424.01608492 -1.25455457 422.21320862 C-1.2609672 417.26195219 -1.25490052 412.31077756 -1.24679029 407.35952652 C-1.24021228 402.01861235 -1.24516202 396.67770732 -1.24867249 391.33679199 C-1.25371502 380.87479923 -1.24807205 370.41283808 -1.23882218 359.95084924 C-1.22843931 347.76956359 -1.22850835 335.58828477 -1.22899476 323.40699553 C-1.22949547 301.67293501 -1.22033189 279.9388892 -1.20581055 258.20483398 C-1.19172473 237.1117323 -1.1846397 216.01864356 -1.18530273 194.92553711 C-1.18534269 193.62658233 -1.18538265 192.32762755 -1.18542381 190.98931051 C-1.18546417 189.69260972 -1.18550452 188.39590893 -1.1855461 187.05991417 C-1.18623597 163.05304092 -1.18034547 139.04617318 -1.17139288 115.03930171 C-1.16837632 106.54703493 -1.16731329 98.05476916 -1.16686058 89.56250191 C-1.16617839 79.21340349 -1.16171298 68.86431435 -1.15252777 58.51521987 C-1.14791109 53.23430704 -1.14486381 47.95340606 -1.14612198 42.67249107 C-1.14721784 37.83841976 -1.1436935 33.00437467 -1.13647345 28.17030882 C-1.13466186 26.42139765 -1.13452814 24.67248376 -1.13624074 22.92357249 C-1.13831155 20.54555749 -1.13423043 18.16762797 -1.12863445 15.7896204 C-1.13068977 15.11153848 -1.13274509 14.43345657 -1.13486269 13.73482671 C-1.11484109 9.07293019 -0.6452015 4.60746247 0 0 Z " fill="#4A83AB" transform="translate(140,296)"/>
<path d="M0 0 C3.97144988 3.60473447 7.70651323 7.68233219 9 13 C9 14.65 9 16.3 9 18 C-5.19 18 -19.38 18 -34 18 C-32.5211814 9.12708843 -29.18859637 4.37864331 -21.96484375 -0.87109375 C-15.3009369 -4.69985931 -6.45154219 -3.88895357 0 0 Z " fill="#4C8CB6" transform="translate(436,698)"/>
<path d="M0 0 C-3.91374682 2.50879521 -8.235136 2.67629392 -12.74609375 3.09375 C-13.62132187 3.17774048 -14.49654999 3.26173096 -15.39830017 3.3482666 C-27.31394218 4.40159749 -39.26551005 4.41154701 -51.21899414 4.53173828 C-54.26204483 4.5653109 -57.30477067 4.61034709 -60.34765625 4.65625 C-61.27562515 4.6615271 -62.20359406 4.6668042 -63.15968323 4.67224121 C-64.01585739 4.68565552 -64.87203156 4.69906982 -65.75415039 4.71289062 C-66.50434952 4.72018188 -67.25454865 4.72747314 -68.02748108 4.73498535 C-70.31957703 4.89601944 -70.31957703 4.89601944 -73 7 C-75.6875 6.125 -75.6875 6.125 -78 5 C-78.33 5.66 -78.66 6.32 -79 7 C-80.98 6.67 -82.96 6.34 -85 6 C-85 5.67 -85 5.34 -85 5 C-122.62 4.67 -160.24 4.34 -199 4 C-199.33 4.99 -199.66 5.98 -200 7 C-202.475 6.505 -202.475 6.505 -205 6 C-205 5.67 -205 5.34 -205 5 C-206.80597656 4.92652344 -206.80597656 4.92652344 -208.6484375 4.8515625 C-210.22398198 4.77653657 -211.79950166 4.70098867 -213.375 4.625 C-214.1690625 4.5940625 -214.963125 4.563125 -215.78125 4.53125 C-221.7734375 4.2265625 -221.7734375 4.2265625 -224 2 C-222.93724161 1.99576806 -221.87448322 1.99153612 -220.77952003 1.98717594 C-194.90586327 1.88392696 -169.03223409 1.77517143 -143.15862465 1.66066074 C-130.64628644 1.60541113 -118.13394538 1.55194285 -105.62158203 1.50268555 C-94.71428399 1.45974235 -83.80700623 1.41343908 -72.89973962 1.36312145 C-67.12585051 1.33660202 -61.35196521 1.3117513 -55.57805252 1.29092598 C-50.13953642 1.27125724 -44.70105864 1.24708368 -39.26257706 1.21950912 C-37.27043864 1.21019266 -35.27829185 1.2024983 -33.28614044 1.19658089 C-30.55706196 1.18822709 -27.82807424 1.17392604 -25.09902954 1.15821838 C-24.31884071 1.15724028 -23.53865188 1.15626217 -22.73482096 1.15525442 C-17.85444456 1.11936604 -13.0716588 0.76621005 -8.22161615 0.21929115 C-5.47364494 -0.05195542 -2.75890425 -0.07260274 0 0 Z " fill="#4D8CA5" transform="translate(756,880)"/>
<path d="M0 0 C0.33 0 0.66 0 1 0 C1.1970602 1.56132309 1.38220155 3.12415264 1.5625 4.6875 C1.66691406 5.55761719 1.77132812 6.42773438 1.87890625 7.32421875 C2 10 2 10 1.51508427 12.26460075 C0.92821214 15.38123559 0.87716134 18.27009406 0.87974548 21.44216919 C0.87837113 22.75183088 0.87699678 24.06149258 0.87558079 25.41084099 C0.87912462 26.86259864 0.88275915 28.31435606 0.88647461 29.76611328 C0.88675461 31.30954041 0.88659167 32.85296768 0.88602352 34.39639473 C0.88572772 38.63964497 0.89166652 42.88286728 0.89859343 47.12611103 C0.90496234 51.70148372 0.90553616 56.27685745 0.9067688 60.85223389 C0.90965687 68.78119352 0.91609843 76.71014387 0.92483521 84.63909912 C0.93738041 96.1085157 0.9434639 107.57792882 0.94776857 119.04735112 C0.95483784 137.66242952 0.9656416 156.27750358 0.97949219 174.89257812 C0.98032 176.00692899 0.98114781 177.12127985 0.98200071 178.26939893 C0.98790131 186.17959936 0.99393517 194.08979969 1 202 C1.00692784 211.03580722 1.01379543 220.07161449 1.02050781 229.10742188 C1.02133594 230.22041759 1.02216407 231.3334133 1.02301729 232.48013616 C1.03669395 251.02495083 1.04645797 269.56976558 1.05341816 288.11458397 C1.05790401 299.55802228 1.06595367 311.00144771 1.07856297 322.44488001 C1.08697671 330.28243993 1.09187668 338.11999688 1.09398818 345.95756102 C1.09533568 350.482668 1.0983602 355.00775831 1.10574722 359.5328598 C1.11248032 363.67294116 1.11463562 367.81299839 1.11311162 371.95308471 C1.11338373 373.45301564 1.11536567 374.95294742 1.1192044 376.45287347 C1.12417192 378.48785322 1.12239001 380.52284612 1.12025452 382.55783081 C1.12117631 383.68934507 1.1220981 384.82085934 1.12304783 385.98666191 C1.00922554 388.77407438 0.63650496 391.28928735 0 394 C-0.33 394 -0.66 394 -1 394 C-1.1731984 344.38442711 -1.33585669 294.76882934 -1.48431293 245.15317591 C-1.50183533 239.30003371 -1.51944529 233.44689177 -1.53710938 227.59375 C-1.54062461 226.42845948 -1.54413985 225.26316896 -1.5477616 224.06256661 C-1.60494256 205.17652422 -1.66922265 186.29051229 -1.736111 167.40450206 C-1.80455042 148.03609002 -1.8653964 128.66766494 -1.91914403 109.2992065 C-1.9525692 97.34092053 -1.99196816 85.38268453 -2.03892837 73.42444393 C-2.07053281 65.23223863 -2.09478373 57.04003248 -2.11317255 48.84778693 C-2.12401293 44.11623191 -2.13817148 39.38474607 -2.16103554 34.65323257 C-2.18187714 30.32549059 -2.19352987 25.99782683 -2.19772999 21.6700376 C-2.200901 20.10065214 -2.20750692 18.53126928 -2.21781154 16.96191445 C-2.23128217 14.83549595 -2.23246438 12.70941777 -2.23047829 10.58296585 C-2.23427549 9.3997573 -2.23807269 8.21654875 -2.24198496 6.9974854 C-2.00804331 4.09963303 -1.51642762 2.44415102 0 0 Z " fill="#589BCB" transform="translate(142,286)"/>
<path d="M0 0 C6.93284942 0.76942606 13.66955552 2.09873552 20.49023438 3.5390625 C21.74610352 3.79816406 21.74610352 3.79816406 23.02734375 4.0625 C23.76718506 4.21847656 24.50702637 4.37445312 25.26928711 4.53515625 C32.72579228 5.80446209 40.01556168 6.12883756 47.5703125 6.0625 C49.73185155 6.05386822 51.89339131 6.04541413 54.05493164 6.03710938 C55.20317413 6.03090576 56.35141663 6.02470215 57.53445435 6.01831055 C63.81591241 5.98627727 70.09737347 5.97354364 76.37890625 5.96875 C77.39289773 5.96792671 77.39289773 5.96792671 78.42737389 5.96708679 C97.97393101 5.95864593 117.5180873 6.23618862 137.0625 6.5 C138.40721249 6.5180368 138.40721249 6.5180368 139.77909088 6.53643799 C150.85281269 6.68507562 161.92644701 6.83927311 173 7 C173 7.66 173 8.32 173 9 C171.55966904 9.01213028 171.55966904 9.01213028 170.09024048 9.02450562 C161.05503152 9.10188396 152.0199747 9.18960187 142.98496437 9.28752708 C138.33961619 9.33754069 133.69429131 9.38387009 129.04882812 9.421875 C124.56835616 9.45866408 120.08807684 9.50500624 115.60776901 9.55806351 C113.895729 9.57664149 112.18364764 9.59173678 110.47154617 9.60334396 C108.07929878 9.62014852 105.68749588 9.64916852 103.29541016 9.68115234 C102.58259384 9.68331253 101.86977753 9.68547272 101.13536072 9.68769836 C97.12114085 9.65113222 97.12114085 9.65113222 94 12 C91.4375 11.625 91.4375 11.625 89 11 C88.67 11 88.34 11 88 11 C85.66666667 11 83.33333333 11 81 11 C81 10.67 81 10.34 81 10 C63.675 9.505 63.675 9.505 46 9 C46 9.66 46 10.32 46 11 C44.68 10.67 43.36 10.34 42 10 C42 9.67 42 9.34 42 9 C38.7 9 35.4 9 32 9 C32 8.34 32 7.68 32 7 C30.91460937 7.04898438 29.82921875 7.09796875 28.7109375 7.1484375 C23.17416617 7.14599732 17.99041188 5.88995803 12.625 4.625 C11.13033203 4.29242187 11.13033203 4.29242187 9.60546875 3.953125 C2.25841876 2.25841876 2.25841876 2.25841876 0 0 Z " fill="#4A85AA" transform="translate(246,875)"/>
<path d="M0 0 C1.14613266 -0.0038269 2.29226532 -0.00765381 3.47312927 -0.01159668 C7.56542075 0.06302804 11.52132518 0.47633457 15.57250977 1.04492188 C15.24250977 1.70492187 14.91250977 2.36492188 14.57250977 3.04492188 C13.98236084 3.06474121 13.39221191 3.08456055 12.78417969 3.10498047 C10.1090088 3.20026846 7.43461479 3.30993126 4.76000977 3.41992188 C3.83124023 3.45085938 2.9024707 3.48179687 1.94555664 3.51367188 C1.05288086 3.55234375 0.16020508 3.59101562 -0.75952148 3.63085938 C-1.58170166 3.66228027 -2.40388184 3.69370117 -3.25097656 3.72607422 C-5.71701961 3.92865809 -5.71701961 3.92865809 -8.42749023 6.04492188 C-10.61499023 5.66992188 -10.61499023 5.66992188 -12.42749023 5.04492188 C-12.42749023 4.71492187 -12.42749023 4.38492188 -12.42749023 4.04492188 C-39.48749023 3.71492187 -66.54749023 3.38492188 -94.42749023 3.04492188 C-94.42749023 2.38492188 -94.42749023 1.72492187 -94.42749023 1.04492188 C-83.47355585 0.91348713 -72.5196103 0.78302744 -61.56564999 0.65377045 C-56.47784297 0.59370446 -51.3900402 0.5333181 -46.30224609 0.47216797 C-41.38094026 0.41303117 -36.45962466 0.3547772 -31.53830147 0.29710388 C-29.67229409 0.27508691 -27.80629027 0.25276599 -25.94029045 0.2301178 C-17.29377149 0.12535258 -8.6471756 0.02542035 0 0 Z " fill="#4B84A7" transform="translate(515.427490234375,880.955078125)"/>
<path d="M0 0 C4.29626505 1.47327673 5.78269112 4.47847473 7.75 8.3125 C8.08926514 8.96259033 8.42853027 9.61268066 8.77807617 10.2824707 C15.39065211 23.36317679 23.42714345 40.04997929 23 55 C23.66 55.33 24.32 55.66 25 56 C25 60.29 25 64.58 25 69 C26.485 69.495 26.485 69.495 28 70 C27.34 70 26.68 70 26 70 C26 72.64 26 75.28 26 78 C24.515 78.495 24.515 78.495 23 79 C23.01160156 78.154375 23.02320313 77.30875 23.03515625 76.4375 C23.10488731 67.67130929 22.84787086 60.11153842 19.88671875 51.8203125 C18.49036157 47.37903547 17.52146664 42.83886892 16.53393555 38.29125977 C15.71347384 34.62318833 14.73997308 31.1663107 13.375 27.66015625 C12 24 12 24 12 21 C11.34 21 10.68 21 10 21 C8.705826 18.43873936 7.41459216 15.87606642 6.125 13.3125 C5.76019531 12.59126953 5.39539063 11.87003906 5.01953125 11.12695312 C3.1820758 7.46874636 1.43861498 3.8388305 0 0 Z " fill="#68B1A4" transform="translate(858,218)"/>
<path d="M0 0 C0.33 0.66 0.66 1.32 1 2 C1.66 2 2.32 2 3 2 C3 1.34 3 0.68 3 0 C4.27875 0.165 5.5575 0.33 6.875 0.5 C11.25304369 0.99955491 15.53215993 1.04770805 19.93359375 0.9375 C22 1 22 1 24 2 C24.33 1.34 24.66 0.68 25 0 C27.64 0.66 30.28 1.32 33 2 C33 1.34 33 0.68 33 0 C33.60328125 0.08378906 34.2065625 0.16757813 34.828125 0.25390625 C36.02695312 0.40666016 36.02695312 0.40666016 37.25 0.5625 C38.03890625 0.66691406 38.8278125 0.77132812 39.640625 0.87890625 C42.00532874 1.00027349 43.7511037 0.69633257 46 0 C46 0.66 46 1.32 46 2 C49.96 2 53.92 2 58 2 C58.33 1.34 58.66 0.68 59 0 C59 0.66 59 1.32 59 2 C60.32 2 61.64 2 63 2 C63 2.66 63 3.32 63 4 C54.57686812 4.02315879 46.15374952 4.04093317 37.73059368 4.05181217 C33.81948917 4.05703324 29.90840643 4.06411685 25.99731445 4.07543945 C22.22369485 4.08629584 18.45009619 4.09228269 14.67646217 4.09487724 C13.23594648 4.09672652 11.79543194 4.10033762 10.35492516 4.10573006 C8.3390858 4.11297686 6.32322542 4.11340837 4.30737305 4.11352539 C2.58528877 4.11685631 2.58528877 4.11685631 0.82841492 4.12025452 C-2 4 -2 4 -5 3 C-4.67 2.34 -4.34 1.68 -4 1 C-2.02 1.495 -2.02 1.495 0 2 C0 1.34 0 0.68 0 0 Z " fill="#52AAAA" transform="translate(602,144)"/>
<path d="M0 0 C1.76989181 3.05799845 2.24832926 5.25183124 2.24050903 8.77093506 C2.24325836 9.72723312 2.24600769 10.68353119 2.24884033 11.66880798 C2.24164978 12.71106033 2.23445923 13.75331268 2.22705078 14.82714844 C2.22734283 15.92988602 2.22763489 17.0326236 2.22793579 18.16877747 C2.22654184 21.8157232 2.21097729 25.46246493 2.1953125 29.109375 C2.19158261 31.63714486 2.18873552 34.16491617 2.18673706 36.69268799 C2.17987956 42.66726938 2.16411469 48.64176313 2.14403808 54.6163094 C2.12167481 61.41916445 2.11068458 68.22202302 2.10064721 75.02490568 C2.07974831 89.01664435 2.04457501 103.00831816 2 117 C1.34 117 0.68 117 0 117 C-0.14531185 110.67275093 -0.28756682 104.34544233 -0.42724609 98.01806641 C-0.47495195 95.87514488 -0.5234275 93.73224031 -0.57275391 91.58935547 C-1.09277267 68.95262038 -0.987412 46.3868525 -0.5 23.75 C-0.45163334 21.43229562 -0.40345519 19.11458729 -0.35546875 16.796875 C-0.23914436 11.19786953 -0.12052349 5.59891658 0 0 Z " fill="#4D9C9A" transform="translate(883,564)"/>
<path d="M0 0 C0.87454834 0.00523682 1.74909668 0.01047363 2.65014648 0.01586914 C3.59438477 0.0190918 4.53862305 0.02231445 5.51147461 0.02563477 C6.50469727 0.03401367 7.49791992 0.04239258 8.52124023 0.05102539 C9.51833008 0.05553711 10.51541992 0.06004883 11.54272461 0.06469727 C14.01478872 0.07652532 16.48673541 0.0930069 18.95874023 0.11352539 C18.95874023 0.44352539 18.95874023 0.77352539 18.95874023 1.11352539 C12.35874023 1.11352539 5.75874023 1.11352539 -1.04125977 1.11352539 C-1.04125977 15.96352539 -1.04125977 30.81352539 -1.04125977 46.11352539 C-6.04125977 41.11352539 -6.04125977 41.11352539 -8.04125977 38.11352539 C-6.72125977 38.77352539 -5.40125977 39.43352539 -4.04125977 40.11352539 C-4.00367554 38.34924194 -4.00367554 38.34924194 -3.96533203 36.54931641 C-3.8714317 32.20137917 -3.77116928 27.85360823 -3.66894531 23.50585938 C-3.62553043 21.62113321 -3.58386033 19.73636603 -3.54394531 17.8515625 C-3.48640083 15.14839291 -3.42266172 12.44543103 -3.35766602 9.74243164 C-3.33259727 8.47055748 -3.33259727 8.47055748 -3.30702209 7.17298889 C-3.12822 0.17397707 -3.12822 0.17397707 0 0 Z " fill="#2982A1" transform="translate(634.041259765625,646.886474609375)"/>
<path d="M0 0 C0.99 0 1.98 0 3 0 C3.33 0.33 3.66 0.66 4 1 C4 0.67 4 0.34 4 0 C7.58331625 -0.02907084 11.16660208 -0.04682263 14.75 -0.0625 C15.76578125 -0.07087891 16.7815625 -0.07925781 17.828125 -0.08789062 C18.8078125 -0.09111328 19.7875 -0.09433594 20.796875 -0.09765625 C21.69760742 -0.10289307 22.59833984 -0.10812988 23.52636719 -0.11352539 C26 0 26 0 28.26269531 0.56860352 C28.83600586 0.71096436 29.40931641 0.8533252 30 1 C30.33 0.67 30.66 0.34 31 0 C33.33291811 -0.04401732 35.66700175 -0.03954234 38 0 C39.32 0 40.64 0 42 0 C44.00401011 0.30830925 46.00511766 0.63729412 48 1 C48 1.66 48 2.32 48 3 C31.83 3 15.66 3 -1 3 C-0.67 2.01 -0.34 1.02 0 0 Z " fill="#51AEBD" transform="translate(325,144)"/>
<path d="M0 0 C0.66 0 1.32 0 2 0 C2 0.66 2 1.32 2 2 C2.84820312 1.67257813 3.69640625 1.34515625 4.5703125 1.0078125 C8.20190011 -0.05932828 11.10336301 -0.20197218 14.875 -0.125 C16.02742188 -0.10695312 17.17984375 -0.08890625 18.3671875 -0.0703125 C19.23601562 -0.04710937 20.10484375 -0.02390625 21 0 C21 0.66 21 1.32 21 2 C21.54366211 1.67402832 22.08732422 1.34805664 22.64746094 1.01220703 C25.48420869 -0.20833637 27.55826514 -0.22810356 30.640625 -0.1953125 C31.71054687 -0.18886719 32.78046875 -0.18242187 33.8828125 -0.17578125 C34.99398437 -0.15902344 36.10515625 -0.14226562 37.25 -0.125 C38.37664062 -0.11597656 39.50328125 -0.10695312 40.6640625 -0.09765625 C43.44292365 -0.07410658 46.2213539 -0.0412168 49 0 C48.67 0.99 48.34 1.98 48 3 C32.16 3 16.32 3 0 3 C0 2.01 0 1.02 0 0 Z M8 1 C12 2 12 2 12 2 Z " fill="#4DB8C3" transform="translate(374,144)"/>
<path d="M0 0 C0.99386719 0.00902344 1.98773437 0.01804687 3.01171875 0.02734375 C4.15060547 0.04474609 4.15060547 0.04474609 5.3125 0.0625 C5.3125 0.3925 5.3125 0.7225 5.3125 1.0625 C4.00925781 1.13984375 4.00925781 1.13984375 2.6796875 1.21875 C-4.10874684 1.70255157 -4.10874684 1.70255157 -9.81640625 4.9765625 C-11.39349511 7.1415337 -11.39349511 7.1415337 -12.63671875 9.3828125 C-12.98347656 9.93710937 -13.33023437 10.49140625 -13.6875 11.0625 C-14.3475 11.0625 -15.0075 11.0625 -15.6875 11.0625 C-16.0175 30.5325 -16.3475 50.0025 -16.6875 70.0625 C-17.0175 70.0625 -17.3475 70.0625 -17.6875 70.0625 C-17.78045177 62.62124675 -17.85139171 55.18012004 -17.89474869 47.73840237 C-17.91556504 44.28234185 -17.94377153 40.82668046 -17.98925781 37.37084961 C-18.04129891 33.39181403 -18.06049459 29.41293634 -18.078125 25.43359375 C-18.09877014 24.20104355 -18.11941528 22.96849335 -18.14068604 21.69859314 C-18.14245175 14.91522653 -17.83973714 10.53094126 -13.6875 5.0625 C-9.19977325 0.9031435 -6.03315679 -0.07097832 0 0 Z " fill="#065B95" transform="translate(516.6875,697.9375)"/>
<path d="M0 0 C5.7831599 0.56595603 10.94314993 1.69236884 16.4375 3.5625 C17.20739258 3.82208496 17.97728516 4.08166992 18.77050781 4.34912109 C29.36434117 8.03646553 39.78325834 12.5597302 49 19 C48.505 20.485 48.505 20.485 48 22 C43.33333333 19.33333333 38.66666667 16.66666667 34 14 C34 13.34 34 12.68 34 12 C27.07751888 9.7488629 27.07751888 9.7488629 19.9375 8.4375 C18.968125 8.293125 17.99875 8.14875 17 8 C16.67 7.34 16.34 6.68 16 6 C14.12511739 5.15835291 14.12511739 5.15835291 11.875 4.5 C11.06933594 4.24605469 10.26367188 3.99210938 9.43359375 3.73046875 C6.29672121 2.78890348 3.156673 1.87312232 0 1 C0 0.67 0 0.34 0 0 Z " fill="#65A99E" transform="translate(764,152)"/>
<path d="M0 0 C6.15234375 -0.09765625 6.15234375 -0.09765625 8 0 C8.33 0.33 8.66 0.66 9 1 C9.99 0.67 10.98 0.34 12 0 C13.56118428 -0.06740865 15.1250252 -0.08514456 16.6875 -0.0625 C17.89986328 -0.04896484 17.89986328 -0.04896484 19.13671875 -0.03515625 C20.05904297 -0.01775391 20.05904297 -0.01775391 21 0 C20.67 0.66 20.34 1.32 20 2 C33.86 2.495 33.86 2.495 48 3 C48 3.33 48 3.66 48 4 C32.66666667 4 17.33333333 4 2 4 C2 3.01 2 2.02 2 1 C1.34 0.67 0.68 0.34 0 0 Z " fill="#4A93AB" transform="translate(304,144)"/>
<path d="M0 0 C3.29159316 -0.05790353 6.58305603 -0.09356261 9.875 -0.125 C10.81214844 -0.14175781 11.74929688 -0.15851562 12.71484375 -0.17578125 C13.61074219 -0.18222656 14.50664062 -0.18867187 15.4296875 -0.1953125 C16.25710449 -0.20578613 17.08452148 -0.21625977 17.93701172 -0.22705078 C20 0 20 0 22 2 C22.33333333 3.33333333 22.66666667 4.66666667 23 6 C23.66 6.66 24.32 7.32 25 8 C24.54625 8.4125 24.0925 8.825 23.625 9.25 C21.94049626 11.06408095 21.00734029 12.75285627 20 15 C19.67 15 19.34 15 19 15 C19 11.04 19 7.08 19 3 C12.73 2.67 6.46 2.34 0 2 C0 1.34 0 0.68 0 0 Z " fill="#3F85AE" transform="translate(479,679)"/>
<path d="M0 0 C0.66 0.33 1.32 0.66 2 1 C0.71186658 1.83878455 -0.58063256 2.67086783 -1.875 3.5 C-2.59429687 3.9640625 -3.31359375 4.428125 -4.0546875 4.90625 C-6 6 -6 6 -8 6 C-8 6.66 -8 7.32 -8 8 C-14.52488919 10.37866998 -20.73555715 10.26342773 -27.625 10.1875 C-29.30335938 10.1865332 -29.30335938 10.1865332 -31.015625 10.18554688 C-35.8287002 10.15970101 -40.29132213 10.07551824 -45 9 C-45 8.67 -45 8.34 -45 8 C-43.22109375 8.05220703 -43.22109375 8.05220703 -41.40625 8.10546875 C-27.58664338 8.388322 -14.06589118 8.1134409 -1.8203125 0.890625 C-1.21960938 0.59671875 -0.61890625 0.3028125 0 0 Z " fill="#286FA8" transform="translate(358,761)"/>
<path d="M0 0 C1.16781006 0.00523682 2.33562012 0.01047363 3.53881836 0.01586914 C4.79887695 0.0190918 6.05893555 0.02231445 7.35717773 0.02563477 C8.6976732 0.03399136 10.03816799 0.04245632 11.37866211 0.05102539 C12.72306153 0.05603879 14.06746271 0.06060197 15.41186523 0.06469727 C18.71334151 0.07653051 22.01473014 0.09301568 25.31616211 0.11352539 C21.78968825 2.46450796 19.58550539 2.49556917 15.47241211 2.76977539 C13.02552454 3.00626777 13.02552454 3.00626777 10.31616211 5.11352539 C7.62866211 4.23852539 7.62866211 4.23852539 5.31616211 3.11352539 C4.98616211 3.77352539 4.65616211 4.43352539 4.31616211 5.11352539 C1.44116211 4.80102539 1.44116211 4.80102539 -1.68383789 4.11352539 C-2.34383789 3.12352539 -3.00383789 2.13352539 -3.68383789 1.11352539 C-2.68383789 0.11352539 -2.68383789 0.11352539 0 0 Z " fill="#4B97AB" transform="translate(672.683837890625,881.886474609375)"/>
<path d="M0 0 C0.33 0 0.66 0 1 0 C1 4.62 1 9.24 1 14 C7.6 14 14.2 14 21 14 C21 14.33 21 14.66 21 15 C17.52085059 15.02887814 14.04173169 15.04675687 10.5625 15.0625 C9.56927734 15.07087891 8.57605469 15.07925781 7.55273438 15.08789062 C6.60849609 15.09111328 5.66425781 15.09433594 4.69140625 15.09765625 C3.81685791 15.10289307 2.94230957 15.10812988 2.04125977 15.11352539 C0 15 0 15 -1 14 C-1.45459858 11.34536879 -1.70243238 8.67810862 -2 6 C-2.51949219 6.49371094 -3.03898438 6.98742187 -3.57421875 7.49609375 C-4.27160156 8.13675781 -4.96898437 8.77742187 -5.6875 9.4375 C-6.71423828 10.39462891 -6.71423828 10.39462891 -7.76171875 11.37109375 C-10.22289422 13.16221098 -12.00816574 13.62798558 -15 14 C-14.34 13.484375 -13.68 12.96875 -13 12.4375 C-10.57444092 10.46673325 -8.18197288 8.47464244 -5.8125 6.4375 C-4.80123047 5.56931641 -4.80123047 5.56931641 -3.76953125 4.68359375 C-1.79044936 2.92449646 -1.79044936 2.92449646 0 0 Z " fill="#257A9F" transform="translate(632,754)"/>
<path d="M0 0 C1.05767578 -0.00128906 2.11535156 -0.00257813 3.20507812 -0.00390625 C4.29884766 -0.00003906 5.39261719 0.00382813 6.51953125 0.0078125 C7.62490234 0.00394531 8.73027344 0.00007812 9.86914062 -0.00390625 C11.44985352 -0.00197266 11.44985352 -0.00197266 13.0625 0 C14.02567139 0.00112793 14.98884277 0.00225586 15.98120117 0.00341797 C18.33203125 0.1328125 18.33203125 0.1328125 20.33203125 1.1328125 C20.33203125 1.7928125 20.33203125 2.4528125 20.33203125 3.1328125 C20.99203125 3.4628125 21.65203125 3.7928125 22.33203125 4.1328125 C21.28015625 3.97941406 20.22828125 3.82601562 19.14453125 3.66796875 C13.22747849 2.92833715 7.28701092 2.77836162 1.33203125 2.5703125 C0.17574219 2.52712891 -0.98054688 2.48394531 -2.171875 2.43945312 C-5.00380729 2.33413333 -7.83581622 2.23200163 -10.66796875 2.1328125 C-10.66796875 1.8028125 -10.66796875 1.4728125 -10.66796875 1.1328125 C-7.05164881 0.30413252 -3.70706085 0.00432599 0 0 Z " fill="#397DAE" transform="translate(325.66796875,646.8671875)"/>
<path d="M0 0 C-0.33 0.66 -0.66 1.32 -1 2 C-1.59014893 2.01981934 -2.18029785 2.03963867 -2.78833008 2.06005859 C-5.46350096 2.15534659 -8.13789498 2.26500939 -10.8125 2.375 C-12.2056543 2.42140625 -12.2056543 2.42140625 -13.62695312 2.46875 C-14.51962891 2.50742187 -15.41230469 2.54609375 -16.33203125 2.5859375 C-17.15421143 2.6173584 -17.9763916 2.6487793 -18.82348633 2.68115234 C-21.28952937 2.88373622 -21.28952937 2.88373622 -24 5 C-26.1875 4.625 -26.1875 4.625 -28 4 C-27.01 3.34 -26.02 2.68 -25 2 C-25.66 1.34 -26.32 0.68 -27 0 C-18.8982584 -2.70058053 -8.35064577 -1.17202046 0 0 Z " fill="#4D87A7" transform="translate(531,882)"/>
<path d="M0 0 C6.93284942 0.76942606 13.66955552 2.09873552 20.49023438 3.5390625 C25.98731847 4.67317993 31.4122185 5.45870129 37 6 C37 6.66 37 7.32 37 8 C35.35 8.33 33.7 8.66 32 9 C32 8.34 32 7.68 32 7 C30.91460937 7.04898438 29.82921875 7.09796875 28.7109375 7.1484375 C23.17416617 7.14599732 17.99041188 5.88995803 12.625 4.625 C11.13033203 4.29242187 11.13033203 4.29242187 9.60546875 3.953125 C2.25841876 2.25841876 2.25841876 2.25841876 0 0 Z " fill="#4583AA" transform="translate(246,875)"/>
<path d="M0 0 C0.33 0 0.66 0 1 0 C1.77806859 11.79073171 2.1596298 23.22529744 1 35 C-4.42066815 26.34407141 -0.73693276 10.01438987 0 0 Z " fill="#549FA0" transform="translate(883,700)"/>
<path d="M0 0 C0 0.66 0 1.32 0 2 C0.886875 1.62875 1.77375 1.2575 2.6875 0.875 C6.40826005 -0.10784228 7.67438135 0.23937836 11 2 C11 2.66 11 3.32 11 4 C2.75 4 -5.5 4 -14 4 C-13.34 3.34 -12.68 2.68 -12 2 C-10.33333333 2 -8.66666667 2 -7 2 C-4 0 -4 0 0 0 Z " fill="#45ACAA" transform="translate(680,144)"/>
<path d="M0 0 C0.66 0.66 1.32 1.32 2 2 C-0.64 2 -3.28 2 -6 2 C-6 1.67 -6 1.34 -6 1 C-7.91635217 0.94576362 -9.83314925 0.90710037 -11.75 0.875 C-12.81734375 0.85179687 -13.8846875 0.82859375 -14.984375 0.8046875 C-17.97501594 0.99838186 -19.44057851 1.56313179 -22 3 C-24.75 3.125 -24.75 3.125 -27 3 C-21.09219822 -4.64539053 -8.11605726 -2.72780348 0 0 Z " fill="#2D75AB" transform="translate(339,668)"/>
<path d="M0 0 C0 0.33 0 0.66 0 1 C-1.30324219 1.07734375 -1.30324219 1.07734375 -2.6328125 1.15625 C-9.42124684 1.64005157 -9.42124684 1.64005157 -15.12890625 4.9140625 C-16.70599511 7.0790337 -16.70599511 7.0790337 -17.94921875 9.3203125 C-18.29597656 9.87460937 -18.64273437 10.42890625 -19 11 C-19.66 11 -20.32 11 -21 11 C-21 11.99 -21 12.98 -21 14 C-21.66 14 -22.32 14 -23 14 C-21.40333982 8.27863435 -19.32836818 4.64689457 -14.4375 1.1875 C-9.60285675 -0.48264949 -5.06531558 -0.24335146 0 0 Z " fill="#2B75A4" transform="translate(522,698)"/>
<path d="M0 0 C0.66 0.33 1.32 0.66 2 1 C-1.96 4.96 -5.92 8.92 -10 13 C-10 10 -10 10 -8 7 C-8.93972656 7.55880859 -8.93972656 7.55880859 -9.8984375 8.12890625 C-10.71570313 8.60199219 -11.53296875 9.07507813 -12.375 9.5625 C-13.59316406 10.27599609 -13.59316406 10.27599609 -14.8359375 11.00390625 C-15.55007813 11.33261719 -16.26421875 11.66132813 -17 12 C-17.66 11.67 -18.32 11.34 -19 11 C-15.88258808 9.13284182 -12.7549542 7.28354339 -9.625 5.4375 C-8.73554687 4.90447266 -7.84609375 4.37144531 -6.9296875 3.82226562 C-6.07890625 3.32275391 -5.228125 2.82324219 -4.3515625 2.30859375 C-3.56604004 1.84251709 -2.78051758 1.37644043 -1.97119141 0.89624023 C-1.32069824 0.60048096 -0.67020508 0.30472168 0 0 Z " fill="#308F99" transform="translate(695,282)"/>
<path d="M0 0 C3 3 3 3 4 9 C10.93 9 17.86 9 25 9 C25 7.02 25 5.04 25 3 C25.99 3.66 26.98 4.32 28 5 C27.67 6.65 27.34 8.3 27 10 C19.08 10 11.16 10 3 10 C2.01 6.7 1.02 3.4 0 0 Z " fill="#236EA6" transform="translate(346,674)"/>
<path d="M0 0 C0.33 0.99 0.66 1.98 1 3 C-2.99451274 7.76764424 -6.87029219 9.85067979 -13 11 C-17.01548186 11.22200981 -20.98382363 11.18348014 -25 11 C-25 10.67 -25 10.34 -25 10 C-24.0821875 9.91363281 -23.164375 9.82726562 -22.21875 9.73828125 C-12.78463302 8.6581145 -6.61102586 6.85070051 0 0 Z " fill="#3184A5" transform="translate(534,480)"/>
<path d="M0 0 C3.625 0.1875 3.625 0.1875 6.625 2.1875 C5.635 2.6825 5.635 2.6825 4.625 3.1875 C4.625 4.1775 4.625 5.1675 4.625 6.1875 C3.655625 6.0225 2.68625 5.8575 1.6875 5.6875 C-0.33483571 5.32757707 -0.33483571 5.32757707 -2.375 5.1875 C-4.70833333 5.1875 -7.04166667 5.1875 -9.375 5.1875 C-8.570625 4.548125 -7.76625 3.90875 -6.9375 3.25 C-3.11460217 0.17303345 -3.11460217 0.17303345 0 0 Z " fill="#4C95AF" transform="translate(336.375,880.8125)"/>
<path d="M0 0 C0.33 1.32 0.66 2.64 1 4 C1.66 4 2.32 4 3 4 C3.12375 4.94875 3.2475 5.8975 3.375 6.875 C3.71687177 10.08667191 3.71687177 10.08667191 6 12 C7.0828125 13.2065625 7.0828125 13.2065625 8.1875 14.4375 C11.40860183 17.37228167 13.95553726 18.49323937 18 20 C15.62255005 20.8471982 14.43159306 21.16474328 12.03515625 20.25 C7.28704307 17.24129462 3.36791549 14.21970937 1 9 C0.35770558 5.9946373 0.07656053 3.06938127 0 0 Z " fill="#2970A5" transform="translate(403,731)"/>
<path d="M0 0 C0.33 0 0.66 0 1 0 C1.33 11.88 1.66 23.76 2 36 C1.67 36 1.34 36 1 36 C-0.65019728 30.95157038 -1.24667542 26.74382482 -1.1875 21.375 C-1.18105469 20.68857422 -1.17460937 20.00214844 -1.16796875 19.29492188 C-1.07263444 12.84198049 -0.61594084 6.42338307 0 0 Z " fill="#46769D" transform="translate(140,712)"/>
<path d="M0 0 C0.99 0 1.98 0 3 0 C3 0.66 3 1.32 3 2 C4.32 1.67 5.64 1.34 7 1 C7 2.32 7 3.64 7 5 C1.42289352 6.06795656 -3.39436958 5.82622671 -9 5 C-9 4.67 -9 4.34 -9 4 C-7.88625 3.896875 -6.7725 3.79375 -5.625 3.6875 C-4.42875 3.460625 -3.2325 3.23375 -2 3 C-1.34 2.01 -0.68 1.02 0 0 Z " fill="#59BBB6" transform="translate(693,144)"/>
<path d="M0 0 C5.91712679 4.15457839 11.01139933 8.77258334 16 14 C15.34 14.66 14.68 15.32 14 16 C13.57589844 15.46890625 13.15179687 14.9378125 12.71484375 14.390625 C8.83544535 9.71829462 5.45748809 6.67305539 0 4 C0 2.68 0 1.36 0 0 Z " fill="#6DB1A4" transform="translate(827,181)"/>
<path d="M0 0 C4.20532472 1.52394795 6.25004166 4.6152865 8.75 8.125 C9.36681641 8.96998047 9.36681641 8.96998047 9.99609375 9.83203125 C11.00476085 11.21601634 12.00339286 12.60730541 13 14 C12.67 14.66 12.34 15.32 12 16 C9.47411298 13.63707344 8.11179163 12.33537489 7 9 C6.01 8.34 5.02 7.68 4 7 C3.31731862 5.67479497 2.6492959 4.34187818 2 3 C1.34 2.67 0.68 2.34 0 2 C0 1.34 0 0.68 0 0 Z " fill="#67AA9F" transform="translate(845,200)"/>
<path d="M0 0 C0.99386719 0.00902344 1.98773438 0.01804688 3.01171875 0.02734375 C4.15060547 0.04474609 4.15060547 0.04474609 5.3125 0.0625 C4.9825 1.0525 4.6525 2.0425 4.3125 3.0625 C-0.3075 3.0625 -4.9275 3.0625 -9.6875 3.0625 C-7.75082354 -0.81085293 -3.83275078 -0.04509119 0 0 Z " fill="#3DC6CC" transform="translate(417.6875,143.9375)"/>
<path d="M0 0 C1.35158203 0.15275391 1.35158203 0.15275391 2.73046875 0.30859375 C3.41753906 0.39238281 4.10460937 0.47617187 4.8125 0.5625 C4.8125 0.8925 4.8125 1.2225 4.8125 1.5625 C3.719375 1.85125 2.62625 2.14 1.5 2.4375 C-2.22763845 3.38143204 -2.22763845 3.38143204 -5.1875 5.5625 C-7.375 5.1875 -7.375 5.1875 -9.1875 4.5625 C-8.1975 3.9025 -7.2075 3.2425 -6.1875 2.5625 C-6.8475 1.9025 -7.5075 1.2425 -8.1875 0.5625 C-4.98734144 -0.50421952 -3.30205706 -0.38595472 0 0 Z " fill="#4397B2" transform="translate(512.1875,881.4375)"/>
<path d="M0 0 C1.78409802 3.06246747 2.22880021 5.22079273 2.125 8.75 C2.10695313 9.54921875 2.08890625 10.3484375 2.0703125 11.171875 C2.03550781 12.07679688 2.03550781 12.07679688 2 13 C-0.64752004 10.42215154 -2.94432065 8.08351902 -5 5 C-3.02 5.99 -3.02 5.99 -1 7 C-0.67 4.69 -0.34 2.38 0 0 Z " fill="#22789C" transform="translate(631,680)"/>
<path d="M0 0 C6.93 0.495 6.93 0.495 14 1 C14 1.66 14 2.32 14 3 C14.66 3.33 15.32 3.66 16 4 C10.39538469 3.57910004 5.27913453 3.08386889 0 1 C0 0.67 0 0.34 0 0 Z " fill="#2B73A8" transform="translate(323,696)"/>
<path d="M0 0 C0.66 0.66 1.32 1.32 2 2 C2.99 2.33 3.98 2.66 5 3 C4.34 3 3.68 3 3 3 C3 5.64 3 8.28 3 11 C2.01 11.33 1.02 11.66 0 12 C0 8.04 0 4.08 0 0 Z " fill="#64BBB1" transform="translate(881,285)"/>
<path d="M0 0 C1.48819457 0.9019361 2.96532813 1.82214129 4.4375 2.75 C5.67306641 3.51570312 5.67306641 3.51570312 6.93359375 4.296875 C9.21744593 6.1792182 9.65514457 7.1157546 10 10 C8.55962331 9.06692579 7.12281015 8.12834923 5.6875 7.1875 C4.48673828 6.40439453 4.48673828 6.40439453 3.26171875 5.60546875 C1.2762598 4.19610151 -0.3491852 2.77903343 -2 1 C-1.34 0.67 -0.68 0.34 0 0 Z " fill="#6AB2A3" transform="translate(816,173)"/>
<path d="M0 0 C0.99 0 1.98 0 3 0 C3.33 0.33 3.66 0.66 4 1 C4 0.67 4 0.34 4 0 C6.31 0.33 8.62 0.66 11 1 C10.67 1.66 10.34 2.32 10 3 C6.37 3 2.74 3 -1 3 C-0.67 2.01 -0.34 1.02 0 0 Z " fill="#3DC0CB" transform="translate(325,144)"/>
<path d="M0 0 C7.59 0 15.18 0 23 0 C23 0.33 23 0.66 23 1 C19.54254978 1.22527296 16.08412975 1.42733544 12.625 1.625 C11.14773438 1.72167969 11.14773438 1.72167969 9.640625 1.8203125 C8.69960938 1.871875 7.75859375 1.9234375 6.7890625 1.9765625 C5.91975098 2.02893066 5.05043945 2.08129883 4.15478516 2.13525391 C2 2 2 2 0 0 Z " fill="#41ACBD" transform="translate(463,885)"/>
<path d="M0 0 C3.13190982 1.0799689 4.00599212 2.00950474 5.8125 4.875 C7.05537349 8.1457197 7.00271664 8.84860486 6 12 C4.99466333 10.37829621 3.99588093 8.75252763 3 7.125 C2.443125 6.22007812 1.88625 5.31515625 1.3125 4.3828125 C0 2 0 2 0 0 Z " fill="#6EB7AA" transform="translate(858,218)"/>
<path d="M0 0 C0.33 0.66 0.66 1.32 1 2 C3.71446979 2.31241455 6.33909361 2.51336592 9.0625 2.625 C10.20041992 2.68300781 10.20041992 2.68300781 11.36132812 2.7421875 C13.24047195 2.83673562 15.12020336 2.91946756 17 3 C17 3.33 17 3.66 17 4 C11.06 4 5.12 4 -1 4 C-0.67 2.68 -0.34 1.36 0 0 Z " fill="#4A8CA2" transform="translate(423,144)"/>
<path d="M0 0 C1.6396875 0.2475 1.6396875 0.2475 3.3125 0.5 C6.87525873 1.06718184 6.87525873 1.06718184 10 1 C10 1.66 10 2.32 10 3 C10.66 3.33 11.32 3.66 12 4 C8.37 4 4.74 4 1 4 C0.67 2.68 0.34 1.36 0 0 Z " fill="#37BFBC" transform="translate(705,144)"/>
<path d="M0 0 C4.95 0.33 9.9 0.66 15 1 C15 1.33 15 1.66 15 2 C7.34901625 4.50128315 7.34901625 4.50128315 4 3 C2.68 2.01 1.36 1.02 0 0 Z " fill="#5392BA" transform="translate(416,749)"/>
<path d="M0 0 C1.27310312 0.93441535 2.543388 1.87267111 3.8125 2.8125 C4.52019531 3.33457031 5.22789062 3.85664062 5.95703125 4.39453125 C7.78531393 5.83128877 9.39896688 7.31815763 11 9 C9.68 9 8.36 9 7 9 C6.34 8.34 5.68 7.68 5 7 C4.13375 6.175 3.2675 5.35 2.375 4.5 C0 2 0 2 0 0 Z " fill="#256DA4" transform="translate(392,756)"/>
<path d="M0 0 C1.6510403 0.39553053 3.2958515 0.81713897 4.9375 1.25 C5.85402344 1.48203125 6.77054688 1.7140625 7.71484375 1.953125 C8.46894531 2.29859375 9.22304688 2.6440625 10 3 C10.33 4.32 10.66 5.64 11 7 C7.37 5.02 3.74 3.04 0 1 C0 0.67 0 0.34 0 0 Z " fill="#70B9AA" transform="translate(802,167)"/>
<path d="M0 0 C2.475 0.99 2.475 0.99 5 2 C5 2.66 5 3.32 5 4 C3.02 4.33 1.04 4.66 -1 5 C-1.33 4.34 -1.66 3.68 -2 3 C-1.34 2.01 -0.68 1.02 0 0 Z " fill="#51A9A6" transform="translate(701,144)"/>
<path d="M0 0 C3.96 0 7.92 0 12 0 C11.67 0.66 11.34 1.32 11 2 C7.04 2 3.08 2 -1 2 C-0.67 1.34 -0.34 0.68 0 0 Z " fill="#3CB9C2" transform="translate(285,144)"/>
<path d="M0 0 C2.20914 3.31371 2.22481553 4.3446021 2.125 8.1875 C2.10695312 9.08855469 2.08890625 9.98960937 2.0703125 10.91796875 C2.03550781 11.94857422 2.03550781 11.94857422 2 13 C1.67 13 1.34 13 1 13 C-0.6290678 8.20862412 -1.20577428 4.94367454 0 0 Z " fill="#4E81A5" transform="translate(140,735)"/>
<path d="M0 0 C0.99 0.66 1.98 1.32 3 2 C-0.13498292 3.85776765 -2.37471432 4.20140476 -6 4 C-3.94766315 1.7522025 -2.99332739 0.9977758 0 0 Z " fill="#387BAF" transform="translate(318,667)"/>
<path d="M0 0 C1.12894876 0.93274109 2.25300876 1.87140122 3.375 2.8125 C4.00148438 3.33457031 4.62796875 3.85664063 5.2734375 4.39453125 C7 6 7 6 9 9 C6 9 6 9 4.39453125 7.5390625 C3.61142578 6.59160156 3.61142578 6.59160156 2.8125 5.625 C2.28269531 4.99851563 1.75289062 4.37203125 1.20703125 3.7265625 C0 2 0 2 0 0 Z " fill="#69A99D" transform="translate(834,187)"/>
<path d="M0 0 C3.3 1.65 6.6 3.3 10 5 C8 6 8 6 6.0546875 5.44140625 C5.33539062 5.15136719 4.61609375 4.86132812 3.875 4.5625 C3.15054688 4.27503906 2.42609375 3.98757812 1.6796875 3.69140625 C0.84824219 3.34916016 0.84824219 3.34916016 0 3 C0 2.01 0 1.02 0 0 Z " fill="#68ADA2" transform="translate(798,163)"/>
<path d="M0 0 C4.95 0 9.9 0 15 0 C13 2 13 2 10.1796875 2.1953125 C9.08914063 2.17210937 7.99859375 2.14890625 6.875 2.125 C5.77929688 2.10695313 4.68359375 2.08890625 3.5546875 2.0703125 C2.71164062 2.04710937 1.86859375 2.02390625 1 2 C0.67 1.34 0.34 0.68 0 0 Z " fill="#3EAAC0" transform="translate(351,885)"/>
<path d="M0 0 C0.66 0.33 1.32 0.66 2 1 C1.38461538 7.52307692 1.38461538 7.52307692 -0.5625 9.9375 C-1.036875 10.288125 -1.51125 10.63875 -2 11 C-1.125 3.375 -1.125 3.375 0 0 Z " fill="#599ECE" transform="translate(148,256)"/>
<path d="M0 0 C1.32 0.33 2.64 0.66 4 1 C4 1.66 4 2.32 4 3 C4.66 3.33 5.32 3.66 6 4 C3.36 3.67 0.72 3.34 -2 3 C-1.34 2.01 -0.68 1.02 0 0 Z " fill="#397EAE" transform="translate(342,647)"/>
<path d="M0 0 C0.33 0.99 0.66 1.98 1 3 C-0.32 4.32 -1.64 5.64 -3 7 C-3.66 6.67 -4.32 6.34 -5 6 C-3.35 4.02 -1.7 2.04 0 0 Z " fill="#418CAF" transform="translate(479,558)"/>
<path d="M0 0 C0.66 0.33 1.32 0.66 2 1 C0.38405168 3.04119788 -1.2856382 5.04072937 -3 7 C-3.66 7 -4.32 7 -5 7 C-5 5.68 -5 4.36 -5 3 C-2.625 1.1875 -2.625 1.1875 0 0 Z " fill="#62ACB2" transform="translate(687,288)"/>
<path d="M0 0 C4.95 0 9.9 0 15 0 C15 0.33 15 0.66 15 1 C4.44191344 2.33257403 4.44191344 2.33257403 0 1 C0 0.67 0 0.34 0 0 Z " fill="#4FA3AF" transform="translate(431,885)"/>
<path d="M0 0 C2.31 0 4.62 0 7 0 C6.67 0.66 6.34 1.32 6 2 C3.03 1.505 3.03 1.505 0 1 C0 0.67 0 0.34 0 0 Z " fill="#4AA8B5" transform="translate(543,885)"/>
<path d="M0 0 C2.31 0 4.62 0 7 0 C5.1875 1.0625 5.1875 1.0625 3 2 C2.01 1.67 1.02 1.34 0 1 C0 0.67 0 0.34 0 0 Z " fill="#39BFC5" transform="translate(343,885)"/>
<path d="M0 0 C2.31 0 4.62 0 7 0 C6.67 0.66 6.34 1.32 6 2 C3.03 1.505 3.03 1.505 0 1 C0 0.67 0 0.34 0 0 Z " fill="#49A0B5" transform="translate(703,885)"/>
<path d="M0 0 C2.31 0 4.62 0 7 0 C6.34 0.66 5.68 1.32 5 2 C2.375 1.625 2.375 1.625 0 1 C0 0.67 0 0.34 0 0 Z " fill="#529EAC" transform="translate(599,885)"/>
<path d="M0 0 C2.31 0 4.62 0 7 0 C6.67 0.66 6.34 1.32 6 2 C3.03 1.505 3.03 1.505 0 1 C0 0.67 0 0.34 0 0 Z " fill="#57A0A7" transform="translate(575,885)"/>
<path d="M0 0 C2.31 0 4.62 0 7 0 C6.67 0.66 6.34 1.32 6 2 C3.03 1.505 3.03 1.505 0 1 C0 0.67 0 0.34 0 0 Z " fill="#2FCFCF" transform="translate(567,885)"/>
<path d="M0 0 C2.31 0 4.62 0 7 0 C6.67 0.66 6.34 1.32 6 2 C3.03 1.505 3.03 1.505 0 1 C0 0.67 0 0.34 0 0 Z " fill="#688997" transform="translate(423,885)"/>
<path d="M0 0 C2.31 0 4.62 0 7 0 C6.34 0.66 5.68 1.32 5 2 C2.375 1.625 2.375 1.625 0 1 C0 0.67 0 0.34 0 0 Z " fill="#4AB4B4" transform="translate(687,885)"/>
<path d="M0 0 C2.31 0 4.62 0 7 0 C7 0.33 7 0.66 7 1 C5.02 1.33 3.04 1.66 1 2 C0.67 1.34 0.34 0.68 0 0 Z " fill="#579FA7" transform="translate(663,885)"/>
<path d="M0 0 C2.31 0 4.62 0 7 0 C6.34 0.66 5.68 1.32 5 2 C2.375 1.625 2.375 1.625 0 1 C0 0.67 0 0.34 0 0 Z " fill="#5CA2A2" transform="translate(655,885)"/>
<path d="M0 0 C2.31 0 4.62 0 7 0 C6.01 0.66 5.02 1.32 4 2 C2.68 1.34 1.36 0.68 0 0 Z " fill="#64929A" transform="translate(319,885)"/>
<path d="M0 0 C2.31 0 4.62 0 7 0 C7 0.33 7 0.66 7 1 C5.02 1.33 3.04 1.66 1 2 C0.67 1.34 0.34 0.68 0 0 Z " fill="#42ADBD" transform="translate(311,885)"/>
<path d="M0 0 C2.31 0 4.62 0 7 0 C7 0.33 7 0.66 7 1 C4.69 1 2.38 1 0 1 C0 0.67 0 0.34 0 0 Z " fill="#588CA7" transform="translate(711,885)"/>
<path d="M0 0 C1.98 0 3.96 0 6 0 C4.02 0.99 4.02 0.99 2 2 C1.34 1.34 0.68 0.68 0 0 Z " fill="#42BCBC" transform="translate(695,885)"/>
<path d="M0 0 C2.31 0 4.62 0 7 0 C7 0.33 7 0.66 7 1 C4.69 1 2.38 1 0 1 C0 0.67 0 0.34 0 0 Z " fill="#45AAB9" transform="translate(647,885)"/>
<path d="M0 0 C2.31 0 4.62 0 7 0 C7 0.33 7 0.66 7 1 C4.69 1 2.38 1 0 1 C0 0.67 0 0.34 0 0 Z " fill="#599CA5" transform="translate(639,885)"/>
<path d="M0 0 C2.31 0 4.62 0 7 0 C7 0.33 7 0.66 7 1 C4.69 1 2.38 1 0 1 C0 0.67 0 0.34 0 0 Z " fill="#48ADB6" transform="translate(623,885)"/>
<path d="M0 0 C2.31 0 4.62 0 7 0 C7 0.33 7 0.66 7 1 C4.69 1 2.38 1 0 1 C0 0.67 0 0.34 0 0 Z " fill="#52A4AD" transform="translate(607,885)"/>
<path d="M0 0 C2.31 0 4.62 0 7 0 C7 0.33 7 0.66 7 1 C4.69 1 2.38 1 0 1 C0 0.67 0 0.34 0 0 Z " fill="#4F9EB0" transform="translate(591,885)"/>
<path d="M0 0 C2.31 0 4.62 0 7 0 C7 0.33 7 0.66 7 1 C4.69 1 2.38 1 0 1 C0 0.67 0 0.34 0 0 Z " fill="#6D8992" transform="translate(583,885)"/>
<path d="M0 0 C2.31 0 4.62 0 7 0 C7 0.33 7 0.66 7 1 C4.69 1 2.38 1 0 1 C0 0.67 0 0.34 0 0 Z " fill="#55A4AA" transform="translate(519,885)"/>
<path d="M0 0 C2.31 0 4.62 0 7 0 C7 0.33 7 0.66 7 1 C4.69 1 2.38 1 0 1 C0 0.67 0 0.34 0 0 Z " fill="#49A4B6" transform="translate(511,885)"/>
<path d="M0 0 C2.31 0 4.62 0 7 0 C7 0.33 7 0.66 7 1 C4.69 1 2.38 1 0 1 C0 0.67 0 0.34 0 0 Z " fill="#55AAAA" transform="translate(495,885)"/>
<path d="M0 0 C2.31 0 4.62 0 7 0 C7 0.33 7 0.66 7 1 C4.69 1 2.38 1 0 1 C0 0.67 0 0.34 0 0 Z " fill="#55AAAA" transform="translate(487,885)"/>
<path d="M0 0 C2.31 0 4.62 0 7 0 C7 0.33 7 0.66 7 1 C4.69 1 2.38 1 0 1 C0 0.67 0 0.34 0 0 Z " fill="#39BCC5" transform="translate(455,885)"/>
<path d="M0 0 C2.31 0 4.62 0 7 0 C7 0.33 7 0.66 7 1 C4.69 1 2.38 1 0 1 C0 0.67 0 0.34 0 0 Z " fill="#5795A7" transform="translate(447,885)"/>
<path d="M0 0 C2.31 0 4.62 0 7 0 C7 0.33 7 0.66 7 1 C4.69 1 2.38 1 0 1 C0 0.67 0 0.34 0 0 Z " fill="#5B92A4" transform="translate(383,885)"/>
<path d="M0 0 C2.31 0 4.62 0 7 0 C7 0.33 7 0.66 7 1 C4.69 1 2.38 1 0 1 C0 0.67 0 0.34 0 0 Z " fill="#46B0B9" transform="translate(375,885)"/>
<path d="M0 0 C2.31 0 4.62 0 7 0 C7 0.33 7 0.66 7 1 C4.69 1 2.38 1 0 1 C0 0.67 0 0.34 0 0 Z " fill="#5280AD" transform="translate(303,885)"/>
<path d="M0 0 C2.31 0 4.62 0 7 0 C7 0.33 7 0.66 7 1 C4.69 1 2.38 1 0 1 C0 0.67 0 0.34 0 0 Z " fill="#43BCBC" transform="translate(737,884)"/>
<path d="M0 0 C2.31 0 4.62 0 7 0 C7 0.33 7 0.66 7 1 C4.69 1 2.38 1 0 1 C0 0.67 0 0.34 0 0 Z " fill="#55AAAA" transform="translate(730,145)"/>
<path d="M0 0 C1.98 0 3.96 0 6 0 C6 0.33 6 0.66 6 1 C4.02 1 2.04 1 0 1 C0 0.67 0 0.34 0 0 Z " fill="#4EB1B1" transform="translate(719,885)"/>
<path d="M0 0 C1.98 0 3.96 0 6 0 C6 0.33 6 0.66 6 1 C4.02 1 2.04 1 0 1 C0 0.67 0 0.34 0 0 Z " fill="#4AAAB4" transform="translate(631,885)"/>
<path d="M0 0 C1.65 0 3.3 0 5 0 C4.67 0.66 4.34 1.32 4 2 C2.68 1.34 1.36 0.68 0 0 Z " fill="#47A3B8" transform="translate(615,885)"/>
<path d="M0 0 C1.98 0 3.96 0 6 0 C6 0.33 6 0.66 6 1 C4.02 1 2.04 1 0 1 C0 0.67 0 0.34 0 0 Z " fill="#60809F" transform="translate(535,885)"/>
<path d="M0 0 C1.98 0 3.96 0 6 0 C6 0.33 6 0.66 6 1 C4.02 1 2.04 1 0 1 C0 0.67 0 0.34 0 0 Z " fill="#519CAD" transform="translate(399,885)"/>
<path d="M0 0 C1.98 0 3.96 0 6 0 C6 0.33 6 0.66 6 1 C4.02 1 2.04 1 0 1 C0 0.67 0 0.34 0 0 Z " fill="#38C6C6" transform="translate(295,885)"/>
<path d="M0 0 C1.98 0.495 1.98 0.495 4 1 C2.35 1.33 0.7 1.66 -1 2 C-0.67 1.34 -0.34 0.68 0 0 Z " fill="#26D8D8" transform="translate(281,884)"/>
<path d="M0 0 C1.65 0 3.3 0 5 0 C5 0.33 5 0.66 5 1 C3.35 1 1.7 1 0 1 C0 0.67 0 0.34 0 0 Z " fill="#19E5E5" transform="translate(727,885)"/>
<path d="M0 0 C1.65 0 3.3 0 5 0 C5 0.33 5 0.66 5 1 C3.35 1 1.7 1 0 1 C0 0.67 0 0.34 0 0 Z " fill="#5999A6" transform="translate(391,885)"/>
<path d="M0 0 C1.65 0 3.3 0 5 0 C5 0.33 5 0.66 5 1 C3.35 1 1.7 1 0 1 C0 0.67 0 0.34 0 0 Z " fill="#5999A5" transform="translate(367,885)"/>
<path d="M0 0 C4 1 4 1 4 1 Z " fill="#6A9595" transform="translate(559,885)"/>
<path d="M0 0 C1 4 1 4 1 4 Z " fill="#20DFDF" transform="translate(885,735)"/>
<path d="M0 0 C1 4 1 4 1 4 Z " fill="#20DFDF" transform="translate(138,291)"/>
<path d="M0 0 C1 4 1 4 1 4 Z " fill="#35CACA" transform="translate(139,282)"/>
<path d="M0 0 C4 1 4 1 4 1 Z " fill="#20DFDF" transform="translate(772,152)"/>
<path d="M0 0 C4 1 4 1 4 1 Z " fill="#40BFBF" transform="translate(722,145)"/>
<path d="M0 0 C4 1 4 1 4 1 Z " fill="#20DFDF" transform="translate(652,144)"/>
<path d="M0 0 C3 1 3 1 3 1 Z " fill="#47B8B8" transform="translate(241,876)"/>
<path d="" fill="#47B8B8" transform="translate(0,0)"/>
<path d="" fill="#47B8B8" transform="translate(0,0)"/>
<path d="" fill="#55AAAA" transform="translate(0,0)"/>
<path d="" fill="#00FFFF" transform="translate(0,0)"/>
<path d="M0 0 C0.66 0 1.32 0 2 0 C1.67 0.66 1.34 1.32 1 2 C0.67 1.34 0.34 0.68 0 0 Z " fill="#55AAAA" transform="translate(824,177)"/>
<path d="M0 0 C0.66 0.66 1.32 1.32 2 2 C1.34 2 0.68 2 0 2 C0 1.34 0 0.68 0 0 Z " fill="#2AD4D4" transform="translate(782,154)"/>
<path d="M0 0 C3 1 3 1 3 1 Z " fill="#6288AE" transform="translate(248,152)"/>
<path d="M0 0 C3 1 3 1 3 1 Z " fill="#2AD4D4" transform="translate(275,146)"/>
<path d="M0 0 C3 1 3 1 3 1 Z " fill="#2AD4D4" transform="translate(352,144)"/>
<path d="M0 0 C2 1 2 1 2 1 Z " fill="#40BFBF" transform="translate(564,885)"/>
<path d="" fill="#2AD4D4" transform="translate(0,0)"/>
<path d="M0 0 C2 1 2 1 2 1 Z " fill="#2AD4D4" transform="translate(750,883)"/>
<path d="M0 0 C2 1 2 1 2 1 Z " fill="#40BFBF" transform="translate(253,879)"/>
<path d="" fill="#40BFBF" transform="translate(0,0)"/>
<path d="" fill="#6A9595" transform="translate(0,0)"/>
<path d="" fill="#40BFBF" transform="translate(0,0)"/>
<path d="" fill="#2AD4D4" transform="translate(0,0)"/>
<path d="" fill="#00FFFF" transform="translate(0,0)"/>
<path d="" fill="#00FFFF" transform="translate(0,0)"/>
<path d="" fill="#00FFFF" transform="translate(0,0)"/>
<path d="M0 0 C2 1 2 1 2 1 Z " fill="#00FFFF" transform="translate(136,507)"/>
<path d="" fill="#40BFBF" transform="translate(0,0)"/>
<path d="M0 0 C2 1 2 1 2 1 Z " fill="#809F9F" transform="translate(822,176)"/>
<path d="M0 0 C2 1 2 1 2 1 Z " fill="#2AD4D4" transform="translate(798,161)"/>
<path d="M0 0 C2 1 2 1 2 1 Z " fill="#00FFFF" transform="translate(239,155)"/>
<path d="M0 0 C2 1 2 1 2 1 Z " fill="#00FFFF" transform="translate(750,147)"/>
<path d="M0 0 C2 1 2 1 2 1 Z " fill="#40BFBF" transform="translate(745,146)"/>
<path d="M0 0 C2 1 2 1 2 1 Z " fill="#2AD4D4" transform="translate(727,145)"/>
<path d="" fill="#2AD4D4" transform="translate(0,0)"/>
<path d="M0 0 C2 1 2 1 2 1 Z " fill="#40BFBF" transform="translate(716,145)"/>
<path d="M0 0 C2 1 2 1 2 1 Z " fill="#00FFFF" transform="translate(669,144)"/>
<path d="M0 0 C2 1 2 1 2 1 Z " fill="#808080" transform="translate(642,144)"/>
<path d="M0 0 C2 1 2 1 2 1 Z " fill="#00FFFF" transform="translate(481,144)"/>
<path d="M0 0 C2 1 2 1 2 1 Z " fill="#00FFFF" transform="translate(446,144)"/>
<path d="" fill="#000000" transform="translate(0,0)"/>
<path d="" fill="#00FFFF" transform="translate(0,0)"/>
<path d="" fill="#00FFFF" transform="translate(0,0)"/>
<path d="" fill="#00FFFF" transform="translate(0,0)"/>
<path d="" fill="#00FFFF" transform="translate(0,0)"/>
<path d="" fill="#00FFFF" transform="translate(0,0)"/>
<path d="" fill="#00FFFF" transform="translate(0,0)"/>
<path d="" fill="#808080" transform="translate(0,0)"/>
<path d="" fill="#55AAAA" transform="translate(0,0)"/>
<path d="" fill="#00FFFF" transform="translate(0,0)"/>
<path d="" fill="#55AAAA" transform="translate(0,0)"/>
<path d="" fill="#00FFFF" transform="translate(0,0)"/>
<path d="" fill="#4080BF" transform="translate(0,0)"/>
<path d="" fill="#00FFFF" transform="translate(0,0)"/>
<path d="" fill="#55AAAA" transform="translate(0,0)"/>
<path d="" fill="#808080" transform="translate(0,0)"/>
<path d="" fill="#00FFFF" transform="translate(0,0)"/>
<path d="" fill="#4080BF" transform="translate(0,0)"/>
<path d="" fill="#55AAAA" transform="translate(0,0)"/>
<path d="" fill="#00FFFF" transform="translate(0,0)"/>
<path d="" fill="#00FFFF" transform="translate(0,0)"/>
<path d="" fill="#808080" transform="translate(0,0)"/>
<path d="" fill="#00FFFF" transform="translate(0,0)"/>
<path d="" fill="#00FFFF" transform="translate(0,0)"/>
<path d="" fill="#4080BF" transform="translate(0,0)"/>
<path d="" fill="#00FFFF" transform="translate(0,0)"/>
<path d="" fill="#808080" transform="translate(0,0)"/>
<path d="" fill="#4080BF" transform="translate(0,0)"/>
<path d="" fill="#55AAAA" transform="translate(0,0)"/>
<path d="" fill="#00FFFF" transform="translate(0,0)"/>
<path d="" fill="#00FFFF" transform="translate(0,0)"/>
<path d="" fill="#55AAAA" transform="translate(0,0)"/>
<path d="" fill="#00FFFF" transform="translate(0,0)"/>
<path d="" fill="#00FFFF" transform="translate(0,0)"/>
<path d="" fill="#808080" transform="translate(0,0)"/>
<path d="" fill="#808080" transform="translate(0,0)"/>
<path d="" fill="#00FFFF" transform="translate(0,0)"/>
<path d="" fill="#00FFFF" transform="translate(0,0)"/>
<path d="" fill="#00FFFF" transform="translate(0,0)"/>
<path d="" fill="#55AAAA" transform="translate(0,0)"/>
<path d="" fill="#4080BF" transform="translate(0,0)"/>
<path d="" fill="#55AAAA" transform="translate(0,0)"/>
<path d="" fill="#4080BF" transform="translate(0,0)"/>
<path d="" fill="#808080" transform="translate(0,0)"/>
<path d="" fill="#00FFFF" transform="translate(0,0)"/>
<path d="" fill="#808080" transform="translate(0,0)"/>
<path d="" fill="#00FFFF" transform="translate(0,0)"/>
<path d="" fill="#00FFFF" transform="translate(0,0)"/>
<path d="" fill="#00FFFF" transform="translate(0,0)"/>
<path d="" fill="#808080" transform="translate(0,0)"/>
<path d="" fill="#808080" transform="translate(0,0)"/>
<path d="" fill="#4080BF" transform="translate(0,0)"/>
<path d="" fill="#00FFFF" transform="translate(0,0)"/>
<path d="" fill="#00FFFF" transform="translate(0,0)"/>
<path d="" fill="#808080" transform="translate(0,0)"/>
<path d="" fill="#00FFFF" transform="translate(0,0)"/>
<path d="" fill="#00FFFF" transform="translate(0,0)"/>
<path d="" fill="#00FFFF" transform="translate(0,0)"/>
<path d="" fill="#00FFFF" transform="translate(0,0)"/>
<path d="" fill="#00FFFF" transform="translate(0,0)"/>
<path d="" fill="#00FFFF" transform="translate(0,0)"/>
<path d="" fill="#00FFFF" transform="translate(0,0)"/>
<path d="" fill="#00FFFF" transform="translate(0,0)"/>
<path d="" fill="#00FFFF" transform="translate(0,0)"/>
<path d="" fill="#00FFFF" transform="translate(0,0)"/>
<path d="" fill="#00FFFF" transform="translate(0,0)"/>
<path d="" fill="#00FFFF" transform="translate(0,0)"/>
<path d="" fill="#00FFFF" transform="translate(0,0)"/>
<path d="" fill="#00FFFF" transform="translate(0,0)"/>
<path d="" fill="#00FFFF" transform="translate(0,0)"/>
<path d="" fill="#00FFFF" transform="translate(0,0)"/>
<path d="" fill="#00FFFF" transform="translate(0,0)"/>
<path d="" fill="#00FFFF" transform="translate(0,0)"/>
<path d="" fill="#00FFFF" transform="translate(0,0)"/>
<path d="" fill="#00FFFF" transform="translate(0,0)"/>
<path d="" fill="#00FFFF" transform="translate(0,0)"/>
<path d="" fill="#808080" transform="translate(0,0)"/>
<path d="" fill="#808080" transform="translate(0,0)"/>
<path d="" fill="#00FFFF" transform="translate(0,0)"/>
<path d="" fill="#00FFFF" transform="translate(0,0)"/>
<path d="" fill="#00FFFF" transform="translate(0,0)"/>
<path d="" fill="#00FFFF" transform="translate(0,0)"/>
<path d="" fill="#00FFFF" transform="translate(0,0)"/>
<path d="" fill="#00FFFF" transform="translate(0,0)"/>
<path d="" fill="#00FFFF" transform="translate(0,0)"/>
<path d="" fill="#00FFFF" transform="translate(0,0)"/>
<path d="" fill="#55AAAA" transform="translate(0,0)"/>
<path d="" fill="#00FFFF" transform="translate(0,0)"/>
<path d="" fill="#00FFFF" transform="translate(0,0)"/>
<path d="" fill="#00FFFF" transform="translate(0,0)"/>
<path d="" fill="#00FFFF" transform="translate(0,0)"/>
<path d="" fill="#00FFFF" transform="translate(0,0)"/>
<path d="" fill="#00FFFF" transform="translate(0,0)"/>
<path d="" fill="#00FFFF" transform="translate(0,0)"/>
<path d="" fill="#808080" transform="translate(0,0)"/>
<path d="" fill="#00FFFF" transform="translate(0,0)"/>
<path d="" fill="#80BFBF" transform="translate(0,0)"/>
<path d="" fill="#00FFFF" transform="translate(0,0)"/>
<path d="" fill="#6699CC" transform="translate(0,0)"/>
<path d="" fill="#00FFFF" transform="translate(0,0)"/>
<path d="" fill="#808080" transform="translate(0,0)"/>
<path d="" fill="#00FFFF" transform="translate(0,0)"/>
<path d="" fill="#808080" transform="translate(0,0)"/>
<path d="" fill="#55AAAA" transform="translate(0,0)"/>
<path d="" fill="#808080" transform="translate(0,0)"/>
<path d="" fill="#55AAAA" transform="translate(0,0)"/>
<path d="" fill="#808080" transform="translate(0,0)"/>
<path d="" fill="#00FFFF" transform="translate(0,0)"/>
<path d="" fill="#00FFFF" transform="translate(0,0)"/>
<path d="" fill="#00FFFF" transform="translate(0,0)"/>
<path d="" fill="#00FFFF" transform="translate(0,0)"/>
<path d="" fill="#00FFFF" transform="translate(0,0)"/>
<path d="" fill="#55AAAA" transform="translate(0,0)"/>
<path d="" fill="#00FFFF" transform="translate(0,0)"/>
<path d="" fill="#00FFFF" transform="translate(0,0)"/>
<path d="" fill="#00FFFF" transform="translate(0,0)"/>
<path d="" fill="#55AAAA" transform="translate(0,0)"/>
<path d="" fill="#00FFFF" transform="translate(0,0)"/>
<path d="" fill="#00FFFF" transform="translate(0,0)"/>
<path d="" fill="#00FFFF" transform="translate(0,0)"/>
<path d="" fill="#00FFFF" transform="translate(0,0)"/>
<path d="" fill="#00FFFF" transform="translate(0,0)"/>
<path d="" fill="#00FFFF" transform="translate(0,0)"/>
<path d="" fill="#00FFFF" transform="translate(0,0)"/>
<path d="" fill="#00FFFF" transform="translate(0,0)"/>
<path d="" fill="#00FFFF" transform="translate(0,0)"/>
<path d="" fill="#00FFFF" transform="translate(0,0)"/>
<path d="" fill="#808080" transform="translate(0,0)"/>
<path d="" fill="#00FFFF" transform="translate(0,0)"/>
<path d="" fill="#00FFFF" transform="translate(0,0)"/>
<path d="" fill="#00FFFF" transform="translate(0,0)"/>
<path d="" fill="#00FFFF" transform="translate(0,0)"/>
<path d="" fill="#00FFFF" transform="translate(0,0)"/>
<path d="" fill="#00FFFF" transform="translate(0,0)"/>
<path d="" fill="#00FFFF" transform="translate(0,0)"/>
<path d="" fill="#00FFFF" transform="translate(0,0)"/>
<path d="" fill="#00FFFF" transform="translate(0,0)"/>
</svg>
