<svg width="20" height="20" viewBox="0 0 20 20" fill="none" xmlns="http://www.w3.org/2000/svg">
  <path d="M18.2 10.2c0-.7-.1-1.4-.2-2H10v3.8h4.6c-.2 1.1-.8 2-1.7 2.6v2.2h2.7c1.6-1.5 2.6-3.7 2.6-6.6z" fill="#4285F4"/>
  <path d="M10 18c2.3 0 4.2-.8 5.6-2.1l-2.7-2.2c-.8.5-1.8.8-2.9.8-2.2 0-4.1-1.5-4.8-3.5H2.4v2.3C3.8 15.8 6.7 18 10 18z" fill="#34A853"/>
  <path d="M5.2 11c-.2-.5-.2-1.1-.2-1.6s.1-1.1.2-1.6V5.5H2.4C1.5 7.3 1 8.6 1 10s.5 2.7 1.4 4.5l2.8-2.2z" fill="#FBBC05"/>
  <path d="M10 4.4c1.3 0 2.4.4 3.3 1.3l2.5-2.5C14.2 1.9 12.3 1 10 1 6.7 1 3.8 3.2 2.4 6.3l2.8 2.2c.7-2 2.6-3.5 4.8-3.5z" fill="#EA4335"/>
</svg>